<svg xmlns="http://www.w3.org/2000/svg" xmlns:xlink="http://www.w3.org/1999/xlink" viewBox="0 0 390.277 396.732"><defs><style>.cls-1{isolation:isolate;}.cls-2{fill:#ff8500;}.cls-3{opacity:0.62;}.cls-4{fill:#f7941d;}.cls-5{fill:#00ad00;}.cls-6{fill:#f9b162;mix-blend-mode:multiply;}.cls-7{fill:#ff553d;}.cls-8{fill:#ff3717;}.cls-9{fill:#292929;}.cls-10{fill:#fc0;}.cls-11{fill:#333;}.cls-12{fill:#a89560;}.cls-13{fill:#f00000;}.cls-14{fill:#da0600;}.cls-15{fill:#ae9c55;}.cls-16{fill:#f78459;}.cls-17{fill:#37464e;}.cls-18{fill:#ff382e;}.cls-19{fill:#566770;}.cls-20{fill:#63747d;}.cls-21{fill:#1c2121;mix-blend-mode:screen;}.cls-22{fill:#6d0103;}.cls-23{fill:#b1282f;}.cls-24{fill:#383838;}.cls-25{fill:#c3c2ce;}.cls-26{fill:#c00;}.cls-27{fill:#393843;}.cls-28{fill:#2d2c37;}.cls-29{fill:#504f58;}.cls-30{fill:#bababe;}.cls-31{fill:url(#linear-gradient);}.cls-32{fill:url(#linear-gradient-2);}.cls-33{fill:url(#linear-gradient-3);}.cls-34{fill:url(#linear-gradient-4);}.cls-35{fill:url(#linear-gradient-5);}.cls-36{fill:#dfdfe3;}.cls-37{fill:#4b4a4b;}.cls-38{fill:url(#linear-gradient-6);}.cls-39{fill:url(#linear-gradient-7);}.cls-40{fill:url(#linear-gradient-8);}.cls-41{fill:url(#linear-gradient-9);}.cls-42{fill:url(#linear-gradient-10);}.cls-43{fill:#fff;}.cls-44{fill:#ffce49;}.cls-45{fill:#e9d7a7;}.cls-46{fill:#ff5030;}.cls-47{fill:#ff4123;}.cls-48{fill:#d9e0ea;}.cls-49{fill:#f6f7f8;}.cls-50{fill:#c1c7ce;}.cls-51{fill:#cbd5e2;}.cls-52{fill:#a9a9a9;}.cls-53{fill:#f6f6f6;}.cls-54{fill:#131313;}</style><linearGradient id="linear-gradient" x1="-2515.766" y1="346.935" x2="-2501.247" y2="321.786" gradientTransform="matrix(-1, 0, 0, 1, -2175.412, 0)" gradientUnits="userSpaceOnUse"><stop offset="0.273" stop-color="#eceef7"/><stop offset="0.77" stop-color="#9c9aa8"/></linearGradient><linearGradient id="linear-gradient-2" x1="-2508.299" y1="338.955" x2="-2515.462" y2="326.549" gradientTransform="matrix(-1, 0, 0, 1, -2175.412, 0)" gradientUnits="userSpaceOnUse"><stop offset="0.262" stop-color="#393843"/><stop offset="0.781" stop-color="#23222e"/></linearGradient><linearGradient id="linear-gradient-3" x1="-2509.401" y1="329.765" x2="-2515.157" y2="331.415" gradientTransform="matrix(-1, 0, 0, 1, -2175.412, 0)" gradientUnits="userSpaceOnUse"><stop offset="0" stop-color="#adaeb8"/><stop offset="0.076" stop-color="#babcc5"/><stop offset="0.199" stop-color="#c9cbd4"/><stop offset="0.342" stop-color="#d2d4dc"/><stop offset="0.549" stop-color="#d5d7df"/><stop offset="0.662" stop-color="#c0c1ca"/><stop offset="1" stop-color="#868490"/></linearGradient><linearGradient id="linear-gradient-4" x1="-2512.078" y1="340.669" x2="-2516.733" y2="338.789" xlink:href="#linear-gradient-3"/><linearGradient id="linear-gradient-5" x1="-2504.191" y1="331.174" x2="-2506.879" y2="326.518" xlink:href="#linear-gradient-3"/><linearGradient id="linear-gradient-6" x1="-2394.365" y1="276.844" x2="-2379.845" y2="251.694" xlink:href="#linear-gradient"/><linearGradient id="linear-gradient-7" x1="-2386.898" y1="268.863" x2="-2394.06" y2="256.457" xlink:href="#linear-gradient-2"/><linearGradient id="linear-gradient-8" x1="-2388" y1="259.674" x2="-2393.755" y2="261.324" xlink:href="#linear-gradient-3"/><linearGradient id="linear-gradient-9" x1="-2390.677" y1="270.578" x2="-2395.332" y2="268.697" xlink:href="#linear-gradient-3"/><linearGradient id="linear-gradient-10" x1="-2382.79" y1="261.082" x2="-2385.478" y2="256.427" xlink:href="#linear-gradient-3"/></defs><g class="cls-1"><g id="Layer_1" data-name="Layer 1"><path class="cls-2" d="M300.124,398.732c-1.16,0-2.318-.006-3.481-.018-51.929-.525-100.363-12.752-136.38-34.429-35.792-21.542-55.228-50.01-54.729-80.16.251-15.162,5.51-29.885,15.631-43.76,10.393-14.247,25.47-26.94,44.813-37.726,37.525-20.924,86.784-32.169,138.706-31.634s100.363,12.753,136.38,34.43c35.792,21.541,55.228,50.009,54.729,80.16-.251,15.161-5.51,29.885-15.631,43.76-10.393,14.247-25.47,26.94-44.813,37.725C398.664,387.537,350.76,398.731,300.124,398.732Zm1.143-223.724c-47.982,0-96.064,10.335-133.343,31.122-37.165,20.723-57.9,48.446-58.394,78.061-.475,28.666,18.274,55.894,52.794,76.67,37.422,22.522,87.523,33.848,137.735,33.851,47.983,0,96.064-10.335,133.344-31.122,37.165-20.723,57.9-48.446,58.394-78.061.474-28.666-18.275-55.894-52.794-76.67C401.581,186.336,351.479,175.008,301.267,175.008Z" transform="translate(-105.525 -2)"/><g class="cls-3"><ellipse class="cls-4" cx="300.663" cy="284.86" rx="169.068" ry="97.929" transform="translate(-106.331 -1.147) rotate(-0.162)"/></g><path class="cls-5" d="M221.324,291.247q-.089,1.4-.085,2.795C221.263,293.155,221.291,292.216,221.324,291.247Z" transform="translate(-105.525 -2)"/><path class="cls-6" d="M178.834,264.749l155.6,90.734s14.252,7.2,28.377,8.126,26.4-5.356,34.973-9.272S426.1,339.061,430.2,335.23s15.333-11.914,4.218-22.807-193-105.294-207.74-105.892-59.664,37.1-60.8,43.651C164.8,256.426,170.532,259.956,178.834,264.749Z" transform="translate(-105.525 -2)"/><path class="cls-7" d="M309.442,288.613a4.362,4.362,0,0,0,1.638-.561c.478-.392.12-1.835-.695-2.352s-3.1.63-3.482.436-2.7.786-2.7.786l.753,1.66Z" transform="translate(-105.525 -2)"/><path class="cls-7" d="M304.836,282.591c2.155-.539,4.351.165,4.641,2.61.352,2.967-.953,3.439-1.74,3.812a18.684,18.684,0,0,1-7.459,1.7c-3.729.042-4.184-1.951-4.185-3.278,0-.189,0-.177.014-.352.106-1.893.788-2.455,2.058-2.834C300.9,283.431,304.836,282.591,304.836,282.591Z" transform="translate(-105.525 -2)"/><path class="cls-7" d="M378.67,241.832a5.076,5.076,0,0,0,.161,1.447c0,.022.011.032.011.054a.938.938,0,0,0,.2.354,2.029,2.029,0,0,0,.258.214,4.742,4.742,0,0,0,1.983.879,3.631,3.631,0,0,0,.964.043h.011a.57.57,0,0,0,.182-.021h.011a3.187,3.187,0,0,0,1.072-.333c.075-.043.161-.086.246-.139h.011c.086-.043.172-.1.257-.15a.011.011,0,0,0,.011-.011,12.6,12.6,0,0,0,4.288-4.513,4.2,4.2,0,0,0,.278-.739,5.275,5.275,0,0,0,.182-.933,1.724,1.724,0,0,0,.022-.225,6.235,6.235,0,0,0,.042-.75,4.584,4.584,0,0,0-.021-.547,1.589,1.589,0,0,0-.032-.321,5.147,5.147,0,0,0-.193-1.019.113.113,0,0,0-.011-.032,3.181,3.181,0,0,0-.9-1.64,1.53,1.53,0,0,0-1.254-.343c-1.061.129-2.605,1.061-5.209,2.83a6.346,6.346,0,0,0-2.423,3.173l-.032.1a3.211,3.211,0,0,0-.075.547c0,.247-.021.536-.032.825v.011C378.67,241,378.66,241.425,378.67,241.832Z" transform="translate(-105.525 -2)"/><path class="cls-8" d="M380.793,240.835v.354l.01.011a.1.1,0,0,0,0,.075,5.549,5.549,0,0,0,.386,2.079v.011l.011.011a1.838,1.838,0,0,0,.911,1.039,2.013,2.013,0,0,0,1.651-.1v-.011a2.155,2.155,0,0,0,.278-.128.011.011,0,0,0,.011-.011,9.793,9.793,0,0,0,4.288-4.513,4.2,4.2,0,0,0,.278-.739,4.146,4.146,0,0,0,.182-.868v-.065a1.724,1.724,0,0,0,.022-.225,6.235,6.235,0,0,0,.042-.75,4.584,4.584,0,0,0-.021-.547,1.291,1.291,0,0,0-.021-.289v-.011a4.121,4.121,0,0,0-.2-1.04.113.113,0,0,0-.011-.032c-.16-.45-.385-.707-.621-.75a1.736,1.736,0,0,0-.515.021A8.358,8.358,0,0,0,384,236.055C382.711,237.148,380.836,238.4,380.793,240.835Z" transform="translate(-105.525 -2)"/><polygon class="cls-9" points="212.221 330.353 224.441 322.697 253.424 340.944 259.569 277.58 87.477 215.967 85.371 249.801 90.601 257.535 103.751 248.469 159.975 286.732 212.221 330.353"/><polygon class="cls-10" points="252.98 343.24 250.205 346.797 236.77 329.525 239.545 325.968 252.98 343.24"/><polygon class="cls-10" points="251.647 344.009 248.872 347.566 235.437 330.294 238.212 326.737 251.647 344.009"/><polygon class="cls-11" points="231.103 307.454 217.717 315.181 237.735 349.699 251.157 341.947 246.845 318.207 231.103 307.454"/><path class="cls-12" d="M347.252,342.7c0,8.97-6.337,12.583-14.154,8.07s-14.155-15.444-14.155-24.414,6.337-12.583,14.155-8.07S347.252,333.729,347.252,342.7Z" transform="translate(-105.525 -2)"/><path class="cls-11" d="M239.177,264.914c0,8.97-6.337,12.583-14.154,8.07s-14.154-15.444-14.154-24.414,6.337-12.583,14.154-8.07S239.177,255.944,239.177,264.914Z" transform="translate(-105.525 -2)"/><polygon class="cls-11" points="109.702 237.363 96.315 245.089 116.334 279.608 129.756 271.856 125.444 248.116 109.702 237.363"/><path class="cls-13" d="M434.313,315.816l-.647.859.688,0h.6l-.51,1.785-2.607.317-.147-.081-10.535-5.764-.549-.272-1.586-.916v-7.7c0-10.493-7.413-23.279-16.558-28.561s-16.563-1.052-16.563,9.441v7.7l-87.922-50.762-.359-.235V233.95c0-10.493-7.412-23.281-16.557-28.561s-16.56-1.052-16.56,9.441v5.12l-.22-.144s-.723-.463-1.916-1.233c-5.149-3.329-19.031-12.414-21.054-14.848-2.5-3-4.356-10.082-4.356-10.082l.063-.479h0l.992-7.625,2.418-1.335,1.134-8.454-1.134-2.214,2.933-2.689.212-4.465,2-.536,14.018,4.3s12.867,3.539,27.749,7.449,27.283,11.336,33.667,14.849a162.352,162.352,0,0,1,27.087,17.9,230.9,230.9,0,0,1,27.93,27.553c5.476,6.541,11.522,13.717,11.522,13.717s10.048,7.709,20.327,14.812,15.523,14.529,20.4,19.165a63.321,63.321,0,0,1,8.142,9.532l.029.448.707,15-.566,2.235Z" transform="translate(-105.525 -2)"/><path class="cls-7" d="M436.443,295.565l-1.974-1.85-19.607-16S394.688,260.24,380.483,251.3,300.96,203,286.831,194.717s-27.391-15.034-27.391-15.034l-16.081-8.837.213-4.465,2-.535,14.018,4.3s12.854,3.432,27.712,7.438c4.709,1.27,8.809,2.2,12.934,3.937,8.892,3.747,16.41,8.522,20.772,10.922A162.455,162.455,0,0,1,348.1,210.339a230.956,230.956,0,0,1,27.929,27.552c5.477,6.543,11.522,13.719,11.522,13.719s10.048,7.708,20.326,14.812,15.524,14.529,20.4,19.163a63.389,63.389,0,0,1,8.142,9.534Z" transform="translate(-105.525 -2)"/><path class="cls-14" d="M379.264,285.9l-72.153-43.234L292.089,207.7l-3.6-11.68.7-4.233.958.158-.66,4.008L293,207.364l14.88,34.629,70.65,42.334.713-4.5,0-3.755a113.109,113.109,0,0,0,.978-15.391c-.2-5.819-.224-8.732-.227-9.286l-2.305-5.511.9-.375,2.38,5.69v.1c0,.028,0,2.891.226,9.351a113.342,113.342,0,0,1-.982,15.521l-.006,3.773Z" transform="translate(-105.525 -2)"/><path class="cls-15" d="M279.737,177.922s-1.3,3.559-1.331,3.705,4.9,6.244,4.9,6.244l99.026,62.245,1.058-.516s-14.706-17.49-25.133-28.192-23.913-19.572-30.638-23.368-24.443-13.384-30.563-15.227S279.737,177.922,279.737,177.922Z" transform="translate(-105.525 -2)"/><polygon class="cls-9" points="191.534 180.813 184.291 189.962 190.033 193.571 196.945 182.845 191.534 180.813"/><polygon class="cls-16" points="309.336 275.712 306.881 276.375 313.454 284.158 320.67 289.798 322.445 289.739 327.319 293.637 328.943 291.714 318.743 282.4 309.336 275.712"/><polygon class="cls-13" points="330.963 294.265 329.189 297.209 328.943 303.637 331.625 308.563 330.963 294.265"/><polygon class="cls-16" points="134.903 171.536 136.188 172.971 150.743 179.753 153.614 179.373 153.916 177.684 143.913 168.465 139.709 167.183 137.947 167.076 134.903 171.536"/><path class="cls-9" d="M264.277,219.805s-.723-.461-1.915-1.233c-5.148-3.328-19.031-12.413-21.055-14.848-2.494-3-4.354-10.081-4.354-10.081l.062-.48,0,0,7.313,5.5,3.7,8.726Z" transform="translate(-105.525 -2)"/><polygon class="cls-7" points="132.486 183.539 134.223 185.409 156.126 199.555 152.877 195.251 141.714 187.375 135.432 183.68 134.903 183.006 134.903 182.204 132.486 183.539"/><path class="cls-7" d="M300.393,228.778s79.391,51.819,80.978,52.6.454-2.34-3.4-5.28-54.911-34.5-64.941-40.81S300.393,228.778,300.393,228.778Z" transform="translate(-105.525 -2)"/><polygon class="cls-13" points="328.565 301.336 319.991 292.619 313.548 287.919 323.635 295.238 328.565 301.336"/><ellipse class="cls-9" cx="402.458" cy="294.482" rx="11.521" ry="19.955" transform="translate(-199.131 241.369) rotate(-30.31)"/><path class="cls-9" d="M295.211,232.563c0,8.97-6.337,12.583-14.154,8.07S266.9,225.189,266.9,216.219s6.337-12.584,14.155-8.07S295.211,223.593,295.211,232.563Z" transform="translate(-105.525 -2)"/><path class="cls-7" d="M421.152,305.274v7.66l-.549-.273-1.586-.916v-7.7c0-10.493-7.412-23.28-16.559-28.561s-16.56-1.053-16.56,9.44v7.7l-2.133-1.232v-7.7c0-11.845,8.368-16.619,18.693-10.658S421.152,293.428,421.152,305.274Z" transform="translate(-105.525 -2)"/><path class="cls-7" d="M299.751,235.183v7.7l-1.777-1.026-.358-.235V233.95c0-10.492-7.414-23.281-16.558-28.56s-16.561-1.054-16.561,9.439v5.121l-.22-.145s-.723-.461-1.915-1.233V213.6c0-11.845,8.371-16.617,18.7-10.656S299.751,223.338,299.751,235.183Z" transform="translate(-105.525 -2)"/><polygon class="cls-9" points="129.213 216.264 137.64 210.011 151.072 200.958 167.92 191.231 180.806 185.089 193.61 180.038 160.284 171.82 155.233 171.719 144.402 175.769 132.505 180.733 111.89 192.636 101.022 200.814 97.02 204.484 97.02 206.384 129.213 216.264"/><polygon class="cls-17" points="190.695 180.235 190.224 180.422 180.451 184.273 177.59 185.637 167.506 190.444 150.599 200.203 137.143 209.274 129.045 215.285 118.668 212.1 97.909 205.725 97.909 204.876 101.592 201.5 112.382 193.38 132.901 181.532 144.744 176.588 155.383 172.612 157.8 172.661 160.168 172.706 174.134 176.148 182.552 178.227 190.695 180.235"/><polygon class="cls-13" points="329.639 305.278 328.725 312.5 328.788 313.816 328.806 314.204 328.83 314.677 328.916 316.462 324.142 323.152 315.256 331.109 294.38 343.162 277.364 350.161 264.052 352.731 259.569 349.603 260.401 347.567 267.764 329.562 313.492 303.164 330.89 293.118 329.639 305.278"/><path class="cls-7" d="M387.548,251.61S415,271.757,422.4,277.712s10.992,10,12.341,13.171a27.655,27.655,0,0,1,1.7,7.211l-28.108-9.881Z" transform="translate(-105.525 -2)"/><path class="cls-7" d="M436.413,295.118l-7.587,8.533-5.571,4.691L401.422,320.95l-12.243,5.592-15.89,5.02L332.1,301.732,318.2,291.657l-.009,0,69.361-40.043s16.335,11.723,28.116,21a105.668,105.668,0,0,1,16,16.21C434.654,292.524,436.413,295.118,436.413,295.118Z" transform="translate(-105.525 -2)"/><path class="cls-18" d="M436.413,295.118l-7.587,8.533-5.571,4.691L401.422,320.95l-12.243,5.592-15.89,5.02.031.449-1.977-1.853-21.683-14.8s-24.33-15.073-38.537-24.011c-.071-.044-.146-.093-.222-.137l-1.119-3.794,3.194,2.745s9.746,5.9,19.128,11.572c7.286,4.4,14.344,8.658,16.477,9.911a60.612,60.612,0,0,0,7.058,3.412,88.852,88.852,0,0,0,13.625,4.549c6.01,1.332,18.036,1.217,22.145.635S418.56,307.494,420.9,305.61s9.271-10.217,10.218-13.806a20.775,20.775,0,0,0,.555-2.981C434.654,292.524,436.413,295.118,436.413,295.118Z" transform="translate(-105.525 -2)"/><path class="cls-8" d="M393.82,322.779c-.661-3-64.288-33.7-64.252-33.849l.788-.213s52.037,24.323,59.465,30.045C392.818,320.654,394.1,321.544,393.82,322.779Z" transform="translate(-105.525 -2)"/><polygon class="cls-18" points="317.239 305.021 316.263 302.578 276.07 258.343 276.846 257.939 316.516 301.605 317.239 305.021"/><path class="cls-13" d="M430.144,298.455s-5.657,7.588-7.544,9.083c-3.527,2.794-16.587,10.383-21.846,12.7s-10.708,4.687-20.2,4.345c1.475,2.237,8.8,3.807,8.8,3.807l21.114-10.906,15.573-9.379Z" transform="translate(-105.525 -2)"/><polygon class="cls-17" points="282.023 249.61 273.941 259.111 268.63 264.152 239.391 281.033 228.442 285.38 212.663 289.655 176.094 246.72 242.572 208.339 282.023 249.61"/><path class="cls-9" d="M385.727,249.705l-3-3.14-.837,1.791c.7,1.2-1.955,6.977-7.434,11s-30.5,18.543-36.427,21.1-12.7,5.359-18.9,5.14c-1.487-.052-2.691,1.444-3.254,3.34l2.316,2.719,15.779-4.275,10.949-4.347,29.239-16.881,5.311-5.041,8.082-9.5Z" transform="translate(-105.525 -2)"/><path class="cls-19" d="M295.749,182.422l-9.773,3.851-2.861,1.364c-.9-1.111-4.709-5.855-4.709-6.01.022-.125.964-2.7,1.253-3.479.049-.142.08-.226.08-.226s3.891,1.057,8.338,2.305C290.667,180.951,293.443,181.742,295.749,182.422Z" transform="translate(-105.525 -2)"/><path class="cls-19" d="M382.065,250.8l.268-.68-45.982-28.9a128.947,128.947,0,0,0,9.976-8.2,121.307,121.307,0,0,1,10.608,9.587C367.361,233.309,382.065,250.8,382.065,250.8Z" transform="translate(-105.525 -2)"/><path class="cls-20" d="M379.976,246.052l-.25-.033-10.942-2.777L344.69,258.478l-3.841,9.878-24.442,13.21.01.012.361.455.008.01c.481.6.927,1.145,1.341,1.626l.014.016c.076.089.151.174.226.259l.1.11c.064.072.127.141.19.21.04.045.081.09.121.133.058.063.114.123.171.182s.083.089.125.132.105.108.158.161l.127.126.144.14.13.12c.045.041.089.081.133.119s.086.075.129.111.082.069.122.1.087.068.13.1.074.057.111.083.088.06.132.089l.1.064c.049.029.1.054.143.08l.077.042c.071.035.876.287.943.311a65.187,65.187,0,0,0,8.236-1.966,76.811,76.811,0,0,0,8.756-3.253,191.224,191.224,0,0,0,19.5-10.242c13.374-7.968,16.913-11.211,16.913-11.211l6.065-6.457a8.725,8.725,0,0,0,.945-3.727C381.571,248.651,380.859,247.478,379.976,246.052Z" transform="translate(-105.525 -2)"/><path class="cls-21" d="M315.872,233.511l-17.8,5.708-15.634,9.025a209.487,209.487,0,0,0,13.778,15.924c11.6,12.289,17.83,23.361,24.049,26.248.255.119.585.257.98.41l12.718-3.446,10.949-4.347,9.79-5.653C332.616,247.13,315.872,233.511,315.872,233.511Z" transform="translate(-105.525 -2)"/><polygon class="cls-7" points="193.61 180.038 180.806 185.089 167.92 191.231 151.072 200.958 137.64 210.011 127.132 218.42 176.094 246.72 189.869 241.279 205.379 233.369 226.156 221.373 233.217 216.252 242.572 208.339 221.759 194.605 193.61 180.038"/><polygon class="cls-7" points="138.048 164.381 126.258 168.345 114.726 173.257 88.106 188.627 78.419 195.965 71.901 202.571 92.069 209.024 101.022 200.814 111.89 192.636 132.505 180.733 144.402 175.769 159.351 170.179 138.048 164.381"/><path class="cls-13" d="M373.32,332.01l-1.372,16.2-.4,1.565-.17.67-2.579,2.5h1.286l-.511,1.785-2.607.317L353,352.664l-.549-.273-1.115-.644-.471-.272-1.21-7.389c0-10.493-7.412-23.281-16.557-28.56s-16.563-1.052-16.563,9.438l1.209,7.389-87.922-50.762-.359-.235L228.255,274c0-10.493-7.413-23.282-16.558-28.561s-16.56-1.052-16.56,9.438l1.209,4.806-.219-.144s-.725-.463-1.916-1.233c-5.149-3.329-15.183-8.778-17.209-11.212-2.492-3-5.151-12.6-5.151-12.6l.063-.481,0,0,.992-7.627,2.418-1.335,1.134-8.451-1.134-2.217,1.084-4.881,1.015-4.929,2-.536,12.881,4.957s13.527,2.859,28.409,6.769,27.428,11.55,33.812,15.063a162.434,162.434,0,0,1,27.087,17.9c11.521,9.428,19.57,22.671,25.048,29.215s11.522,13.72,11.522,13.72,10.048,7.708,20.326,14.812,21.761,10.928,26.632,15.563a63.534,63.534,0,0,1,8.143,9.532Z" transform="translate(-105.525 -2)"/><path class="cls-7" d="M230.362,274.017c-1.775-21.727-2.429-26.5-12.441-33.6s-17.4-4.224-20.677-1.41S193,248.057,193,253.641c3.195-8.025,2.391-9.923,8.388-11.69s12.082,3.6,12.082,3.6l6.674,5.839,5.705,8.812Z" transform="translate(-105.525 -2)"/><path class="cls-7" d="M232.873,269.205s77.551,51.437,79.138,52.223.238-6.718-3.616-9.658-50.256-30.507-60.287-36.818S232.873,269.205,232.873,269.205Z" transform="translate(-105.525 -2)"/><path class="cls-7" d="M373.32,332.011l-1.977-1.853-21.683-14.8s-24.33-15.073-38.537-24.011c-.071-.044-.146-.093-.222-.137-14.646-9.2-79.374-48.2-93.43-56.448-14.13-8.285-27.391-15.033-27.391-15.033L176.411,209.5l1.013-4.931,2-.533,12.882,4.953s13.527,2.861,28.409,6.77,27.426,11.554,33.814,15.064a162.419,162.419,0,0,1,27.085,17.893c11.523,9.431,21.647,21.474,27.124,28.018a80.494,80.494,0,0,1,9.445,14.917l.009,0c.368.2,12.278,6.615,22.4,13.611,5.442,3.763,10.64,6.939,15.046,9.787a67.311,67.311,0,0,1,9.507,6.974,63.4,63.4,0,0,1,8.143,9.533Z" transform="translate(-105.525 -2)"/><path class="cls-13" d="M262.447,254.5l-1.677,5.11s-2.463,8.851-2.463,13.338a37.524,37.524,0,0,0,.954,8.25l-1.034,4.381.558,8.9Z" transform="translate(-105.525 -2)"/><path class="cls-22" d="M262.932,264.127a3.236,3.236,0,0,0-.7,2.72c.3.781,5.718,4.085,6.261,4.218s.946-1.366.868-1.828S262.932,264.127,262.932,264.127Z" transform="translate(-105.525 -2)"/><path class="cls-23" d="M267.4,266.437l-3.7-2.352c-.479-.3-.886-.095-.911.469l-.008.2a1.959,1.959,0,0,0,.823,1.571l5.086,3.235c.572.364.9-.254.529-.993h0A5.437,5.437,0,0,0,267.4,266.437Z" transform="translate(-105.525 -2)"/><path class="cls-24" d="M264.264,265.592c-.013.3-.232.416-.49.252a1.055,1.055,0,0,1-.443-.846c.013-.3.232-.416.49-.252A1.055,1.055,0,0,1,264.264,265.592Z" transform="translate(-105.525 -2)"/><path class="cls-22" d="M223.839,239.641a3.239,3.239,0,0,0-.7,2.721c.3.78,5.718,4.084,6.261,4.217s.946-1.365.868-1.827S223.839,239.641,223.839,239.641Z" transform="translate(-105.525 -2)"/><path class="cls-23" d="M228.306,241.952l-3.7-2.352c-.479-.305-.887-.095-.911.469l-.008.2a1.961,1.961,0,0,0,.823,1.571l5.086,3.235c.572.363.9-.255.529-.994h0A5.441,5.441,0,0,0,228.306,241.952Z" transform="translate(-105.525 -2)"/><path class="cls-24" d="M225.171,241.107c-.013.3-.232.416-.49.252a1.055,1.055,0,0,1-.443-.846c.013-.3.232-.416.49-.252A1.054,1.054,0,0,1,225.171,241.107Z" transform="translate(-105.525 -2)"/><path class="cls-18" d="M365.146,322.029a67.311,67.311,0,0,0-9.507-6.974,60.612,60.612,0,0,1-7.058-3.412c-2.133-1.253-9.191-5.513-16.477-9.911-9.382-5.668-19.128-11.572-19.128-11.572l-3.194-2.745,1.119,3.794c.076.044.151.093.222.137,14.207,8.938,38.537,24.011,38.537,24.011l21.683,14.8,1.977,1.853-.031-.449A63.4,63.4,0,0,0,365.146,322.029Z" transform="translate(-105.525 -2)"/><path class="cls-14" d="M309.9,325.944,237.751,282.71l-15.023-34.965-3.6-11.681.7-4.233.958.158L220.12,236l3.519,11.413,14.88,34.628,70.65,42.334.713-4.5,0-3.755a112.927,112.927,0,0,0,.978-15.39c-.2-5.82-.224-8.733-.226-9.286l-2.3-5.513.9-.374,2.38,5.691v.1c0,.028,0,2.891.226,9.351a113.3,113.3,0,0,1-.982,15.521l-.006,3.773Z" transform="translate(-105.525 -2)"/><path class="cls-9" d="M210.377,217.967s-1.3,3.559-1.332,3.7,4.9,6.244,4.9,6.244l99.027,62.245,1.058-.516s-11.824-19.154-22.251-29.856-23.914-19.572-30.638-23.368S236.7,223.037,230.58,221.194,210.377,217.967,210.377,217.967Z" transform="translate(-105.525 -2)"/><path class="cls-17" d="M214.828,226.924c-1.737-2.151-3.59-4.477-4.33-5.453.186-.523.478-1.326.758-2.1,3.317.355,13.955,1.57,18.947,3.074,6.163,1.855,24.4,11.782,30.3,15.113A147.7,147.7,0,0,1,290.844,260.7c7.8,8,16.491,20.953,20.216,26.711Z" transform="translate(-105.525 -2)"/><polygon class="cls-9" points="125.055 219.194 114.93 230.007 120.673 233.617 130.467 221.226 125.055 219.194"/><polygon class="cls-9" points="159.803 238.071 155.255 254.294 159.073 256.713 162.979 239.663 159.803 238.071"/><polygon class="cls-13" points="244.133 313.356 241.678 314.02 248.251 321.803 255.467 327.443 257.242 327.384 264.194 330.082 265.819 328.158 253.54 320.045 244.133 313.356"/><polygon class="cls-13" points="267.839 330.71 266.064 333.654 263.74 341.282 266.423 346.208 267.839 330.71"/><polygon class="cls-25" points="82.645 217.373 82.517 218.092 82.343 219.065 79.474 219.443 70.998 214.099 69.803 212.384 70.998 205.729 71.957 206.298 72.672 206.907 74.552 208.51 82.645 217.373"/><path class="cls-9" d="M196.126,259.535s-.723-.462-1.916-1.234c-5.147-3.328-15.183-8.777-17.207-11.212-2.493-3-5.151-12.6-5.151-12.6l.062-.48,0,0,3.054,4.7,4.91,8.41Z" transform="translate(-105.525 -2)"/><path class="cls-7" d="M172.909,226.386c-1.346-5.149,3.35-8.283,3.35-8.283s-.932,6.146-.932,6.948a52.828,52.828,0,0,0,13.607,12.778,15.722,15.722,0,0,0,3.357,3.771s-14.873-9.939-18.211-12.613S172.909,226.386,172.909,226.386Z" transform="translate(-105.525 -2)"/><ellipse class="cls-9" cx="333.098" cy="334.527" rx="11.521" ry="19.955" transform="translate(-228.823 211.84) rotate(-30.311)"/><ellipse class="cls-9" cx="211.696" cy="264.436" rx="11.521" ry="19.955" transform="translate(-210.044 140.99) rotate(-30.311)"/><path class="cls-26" d="M230.391,275.228l1.209,7.389-1.777-1.027-.358-.235L228.256,274c0-10.492-7.415-23.281-16.559-28.56s-16.56-1.053-16.56,9.439l1.209,4.806-.22-.145s-.723-.462-1.916-1.234L193,253.641c0-11.845,8.371-16.617,18.695-10.656S230.391,263.383,230.391,275.228Z" transform="translate(-105.525 -2)"/><path class="cls-7" d="M345.715,210.51s15.062,13.116,23.534,22.739c6.019,6.836,10.024,11.735,12.639,15.107,3.529,4.552-1.591,12.571-1.591,12.571l7.361-9.139-16.562-19.5-23-21.948Z" transform="translate(-105.525 -2)"/><polygon class="cls-7" points="97.02 204.484 97.02 206.384 129.213 216.264 137.64 210.011 127.447 218.293 91.719 208.674 97.02 204.484"/><polygon class="cls-7" points="192.576 180.446 192.734 180.038 160.284 171.82 154.831 171.711 159.444 169.915 193.96 179.973 192.576 180.446"/><path class="cls-27" d="M347.252,342.7c0,8.97-6.337,12.583-14.154,8.07s-14.155-15.444-14.155-24.414,6.337-12.583,14.155-8.07S347.252,333.729,347.252,342.7Z" transform="translate(-105.525 -2)"/><path class="cls-28" d="M346.369,342.536c0,8.629-6.1,12.105-13.616,7.763s-13.616-14.856-13.616-23.485,6.1-12.105,13.616-7.764S346.369,333.907,346.369,342.536Z" transform="translate(-105.525 -2)"/><path class="cls-29" d="M344.447,341.468c0,7.348-5.192,10.308-11.6,6.611s-11.6-12.652-11.6-20,5.192-10.308,11.6-6.611S344.447,334.12,344.447,341.468Z" transform="translate(-105.525 -2)"/><path class="cls-30" d="M344.085,340.7c0,6.965-4.921,9.77-10.99,6.266s-10.989-11.991-10.989-18.955,4.92-9.77,10.989-6.266S344.085,333.738,344.085,340.7Z" transform="translate(-105.525 -2)"/><path class="cls-31" d="M322.894,330.116a23.51,23.51,0,0,0,5.625,12.192c3.161,3.622,6.736,5.447,9.605,5.268a4.962,4.962,0,0,0,3.284-1.448,4.505,4.505,0,0,0,.78-.979c.047-.075.094-.141.132-.216a5.54,5.54,0,0,0,.414-.856,8.385,8.385,0,0,0,.4-1.251,11.293,11.293,0,0,0,.264-2.512c0-.405-.019-.819-.057-1.233-.009-.216-.037-.423-.066-.63-.018-.141-.037-.282-.056-.423s-.038-.264-.066-.4c-.066-.395-.141-.8-.245-1.2-.047-.2-.094-.385-.15-.583a4.366,4.366,0,0,0-.141-.489c-.066-.235-.141-.48-.226-.715-.056-.179-.113-.357-.179-.527a22.209,22.209,0,0,0-.959-2.267c-.076-.16-.151-.31-.226-.461-.263-.508-.536-1.006-.837-1.505l-.226-.367c-.141-.226-.292-.451-.433-.668a24.385,24.385,0,0,0-1.853-2.436c-.339-.386-.677-.753-1.025-1.092-.16-.169-.33-.329-.49-.48-.047-.047-.1-.094-.15-.141-.132-.122-.273-.244-.4-.357a13.734,13.734,0,0,0-4.892-2.86c-2.784-.837-5.277-.188-6.707,2.089-.047.065-.094.141-.132.207a7.129,7.129,0,0,0-.649,1.5A11.908,11.908,0,0,0,322.894,330.116Z" transform="translate(-105.525 -2)"/><path class="cls-27" d="M336.478,326.776l.1,3.086c1.157-.094,2.3-.207,3.377-.348-.141-.226-.292-.451-.433-.668a24.385,24.385,0,0,0-1.853-2.436c-.339-.386-.677-.753-1.025-1.092-.16-.169-.33-.329-.49-.48-.047-.047-.1-.094-.15-.141-.132-.122-.273-.244-.4-.357a13.734,13.734,0,0,0-4.892-2.86c-2.784-.837-5.277-.188-6.707,2.089A11.1,11.1,0,0,1,336.478,326.776Z" transform="translate(-105.525 -2)"/><path class="cls-27" d="M323.552,330.069s2.663,3.528,5.4,4.459,8.034,7.338,8.034,7.338l-.4-12C330.326,330.333,323.552,330.069,323.552,330.069Z" transform="translate(-105.525 -2)"/><path class="cls-32" d="M329.037,328a20.142,20.142,0,0,0,4.835,10.47,14.721,14.721,0,0,0,4.666,3.707v.009a7.358,7.358,0,0,0,3.575.809,1.156,1.156,0,0,0,.254-.028,3.421,3.421,0,0,0,.762-.141,11.293,11.293,0,0,0,.264-2.512c0-.405-.019-.819-.057-1.233-.009-.216-.037-.423-.066-.63-.018-.141-.037-.282-.056-.423s-.038-.264-.066-.4c-.066-.395-.141-.8-.245-1.2-.047-.2-.094-.385-.15-.583a4.366,4.366,0,0,0-.141-.489c-.066-.235-.141-.48-.226-.715-.056-.179-.113-.357-.179-.527a22.209,22.209,0,0,0-.959-2.267c-.076-.16-.151-.31-.226-.461-.263-.508-.536-1.006-.837-1.505-.207-.348-.433-.7-.659-1.035a24.385,24.385,0,0,0-1.853-2.436c-.339-.386-.677-.753-1.025-1.092-.16-.169-.33-.329-.49-.48-.047-.047-.1-.094-.15-.141-.132-.122-.273-.244-.4-.357a13.734,13.734,0,0,0-4.892-2.86,4.967,4.967,0,0,0-.837,1.082,6.09,6.09,0,0,0-.555,1.289,9.276,9.276,0,0,0-.357,2.182A12.66,12.66,0,0,0,329.037,328Z" transform="translate(-105.525 -2)"/><path class="cls-33" d="M336.943,333.764l-.258,2.411v.009l.258-2.42,1.878-1.089,1.364-2.794c-.207-.348-.433-.7-.659-1.035a24.385,24.385,0,0,0-1.853-2.436c-.339-.386-.677-.753-1.025-1.092-.16-.169-.33-.329-.49-.48-.047-.047-.1-.094-.15-.141-.367.217-.668.4-.687.424l2.35,2.7Z" transform="translate(-105.525 -2)"/><path class="cls-34" d="M336.943,333.764l-.258,2.411v.009l1.853,5.993.828,2.7c.282.592-.555,1.937-.169,1.862a13.347,13.347,0,0,0,2.991-1.59c.047-.075.094-.141.132-.216a5.54,5.54,0,0,0,.414-.856,1.385,1.385,0,0,0-.141-.433l-.226-.677L338.981,333l-.16-.32Z" transform="translate(-105.525 -2)"/><path class="cls-35" d="M325.618,324.807a.63.63,0,0,1,.605.069l8.991,3.806.252.145.009,4.827-2-1.149-7.452-2.921a1.938,1.938,0,0,1-.872-1.454c-.051-1.055-1.676-1.285-1.475-2.2A12.293,12.293,0,0,1,325.618,324.807Z" transform="translate(-105.525 -2)"/><path class="cls-36" d="M335.08,337.585l3.906-8.03a1.463,1.463,0,0,0-.283-1.428q-.555-.754-1.175-1.466t-1.258-1.323c-.409-.393-.856-.431-1.048-.1l-3.906,8.03Z" transform="translate(-105.525 -2)"/><path class="cls-36" d="M333.594,334.741l-.01-4.828-.251-.144-8.992-3.807c-.406-.233-.76-.115-.848.289a11.331,11.331,0,0,0-.221,2.965,1.938,1.938,0,0,0,.873,1.454l7.451,2.922Z" transform="translate(-105.525 -2)"/><path class="cls-36" d="M340.685,345.96c.261-.2.271-.717.026-1.231L337.1,334.084l-.153-.32-3.349.977,1.2,2.522,2.686,8.7c.281.588.8.983,1.187.907A4.707,4.707,0,0,0,340.685,345.96Z" transform="translate(-105.525 -2)"/><path class="cls-37" d="M338.676,345.68a.873.873,0,0,1-.143-.216l-2.755-8.844-3.435-3.938-7.619-3.018a.832.832,0,0,1-.292-.5,11.132,11.132,0,0,1,.05-1.778l9.277,3.971,2.062-4.827q.424.432.832.9c.386.443.761.911,1.116,1.392a.872.872,0,0,1,.139.287l-2.122,4.931,3.888,11.219A3.524,3.524,0,0,1,338.676,345.68Z" transform="translate(-105.525 -2)"/><path class="cls-28" d="M225.851,272.608c0,8.971-6.338,12.583-14.155,8.07s-14.154-15.444-14.154-24.414,6.337-12.583,14.154-8.07S225.851,263.638,225.851,272.608Z" transform="translate(-105.525 -2)"/><path class="cls-27" d="M225.851,272.608c0,8.97-6.338,12.583-14.155,8.07s-14.154-15.444-14.154-24.414,6.337-12.583,14.154-8.07S225.851,263.638,225.851,272.608Z" transform="translate(-105.525 -2)"/><path class="cls-28" d="M224.968,272.445c0,8.629-6.1,12.105-13.616,7.763s-13.616-14.857-13.616-23.485,6.1-12.105,13.616-7.764S224.968,263.816,224.968,272.445Z" transform="translate(-105.525 -2)"/><path class="cls-29" d="M223.045,271.376c0,7.349-5.191,10.309-11.595,6.612s-11.595-12.652-11.595-20,5.191-10.308,11.6-6.611S223.045,264.028,223.045,271.376Z" transform="translate(-105.525 -2)"/><path class="cls-30" d="M222.683,270.611c0,6.965-4.92,9.77-10.99,6.266S200.7,264.886,200.7,257.922s4.92-9.77,10.989-6.266S222.683,263.647,222.683,270.611Z" transform="translate(-105.525 -2)"/><path class="cls-38" d="M201.492,260.025a23.512,23.512,0,0,0,5.626,12.192c3.161,3.622,6.736,5.447,9.605,5.268a4.959,4.959,0,0,0,3.283-1.449,4.5,4.5,0,0,0,.781-.978c.047-.075.094-.141.132-.216a5.54,5.54,0,0,0,.414-.856,8.516,8.516,0,0,0,.4-1.252,11.279,11.279,0,0,0,.263-2.511c0-.405-.019-.819-.056-1.233-.01-.216-.038-.423-.066-.63l-.057-.423c-.018-.132-.037-.264-.065-.4-.066-.395-.142-.8-.245-1.2-.047-.2-.094-.385-.15-.583a4.168,4.168,0,0,0-.142-.489c-.065-.235-.141-.48-.225-.715-.057-.179-.113-.358-.179-.527a22.349,22.349,0,0,0-.96-2.267c-.075-.16-.15-.311-.225-.461-.264-.508-.537-1.007-.838-1.5l-.225-.367c-.142-.226-.292-.452-.433-.668a24.7,24.7,0,0,0-1.853-2.437c-.339-.385-.678-.752-1.026-1.091-.16-.169-.329-.329-.489-.48-.047-.047-.1-.094-.151-.141-.131-.122-.272-.244-.4-.357a13.742,13.742,0,0,0-4.892-2.86c-2.785-.837-5.278-.188-6.708,2.088a2.368,2.368,0,0,0-.131.207,7.174,7.174,0,0,0-.649,1.5A11.913,11.913,0,0,0,201.492,260.025Z" transform="translate(-105.525 -2)"/><path class="cls-27" d="M215.077,256.685l.1,3.086c1.157-.094,2.305-.207,3.378-.348-.142-.226-.292-.452-.433-.668a24.7,24.7,0,0,0-1.853-2.437c-.339-.385-.678-.752-1.026-1.091-.16-.169-.329-.329-.489-.48-.047-.047-.1-.094-.151-.141-.131-.122-.272-.244-.4-.357a13.742,13.742,0,0,0-4.892-2.86c-2.785-.837-5.278-.188-6.708,2.088A11.1,11.1,0,0,1,215.077,256.685Z" transform="translate(-105.525 -2)"/><path class="cls-27" d="M202.151,259.978s2.662,3.528,5.4,4.459,8.034,7.338,8.034,7.338l-.405-12C208.924,260.241,202.151,259.978,202.151,259.978Z" transform="translate(-105.525 -2)"/><path class="cls-39" d="M207.635,257.908a20.152,20.152,0,0,0,4.836,10.471,14.731,14.731,0,0,0,4.666,3.706v.01a7.356,7.356,0,0,0,3.575.809,1.22,1.22,0,0,0,.254-.028,3.386,3.386,0,0,0,.762-.142,11.279,11.279,0,0,0,.263-2.511c0-.405-.019-.819-.056-1.233-.01-.216-.038-.423-.066-.63l-.057-.423c-.018-.132-.037-.264-.065-.4-.066-.395-.142-.8-.245-1.2-.047-.2-.094-.385-.15-.583a4.168,4.168,0,0,0-.142-.489c-.065-.235-.141-.48-.225-.715-.057-.179-.113-.358-.179-.527a22.349,22.349,0,0,0-.96-2.267c-.075-.16-.15-.311-.225-.461-.264-.508-.537-1.007-.838-1.5-.207-.348-.432-.7-.658-1.035a24.7,24.7,0,0,0-1.853-2.437c-.339-.385-.678-.752-1.026-1.091-.16-.169-.329-.329-.489-.48-.047-.047-.1-.094-.151-.141-.131-.122-.272-.244-.4-.357a13.742,13.742,0,0,0-4.892-2.86,4.913,4.913,0,0,0-.837,1.082,6.09,6.09,0,0,0-.555,1.289,9.267,9.267,0,0,0-.358,2.182A12.772,12.772,0,0,0,207.635,257.908Z" transform="translate(-105.525 -2)"/><path class="cls-40" d="M215.542,263.673l-.258,2.41v.01l.258-2.42,1.877-1.089,1.364-2.794c-.207-.348-.432-.7-.658-1.035a24.7,24.7,0,0,0-1.853-2.437c-.339-.385-.678-.752-1.026-1.091-.16-.169-.329-.329-.489-.48-.047-.047-.1-.094-.151-.141-.367.217-.668.405-.686.424l2.35,2.7Z" transform="translate(-105.525 -2)"/><path class="cls-41" d="M215.542,263.673l-.258,2.41v.01l1.853,5.992.828,2.7c.282.593-.555,1.938-.169,1.863a13.39,13.39,0,0,0,2.991-1.59c.047-.075.094-.141.132-.216a5.54,5.54,0,0,0,.414-.856,1.369,1.369,0,0,0-.141-.433l-.226-.677-3.387-9.972-.16-.32Z" transform="translate(-105.525 -2)"/><path class="cls-42" d="M204.217,254.716a.628.628,0,0,1,.6.068l8.992,3.807.251.145.01,4.827-2-1.149-7.452-2.921a1.936,1.936,0,0,1-.872-1.455c-.051-1.054-1.676-1.284-1.475-2.2A12.32,12.32,0,0,1,204.217,254.716Z" transform="translate(-105.525 -2)"/><path class="cls-36" d="M213.678,267.494l3.907-8.03a1.462,1.462,0,0,0-.283-1.428q-.556-.754-1.175-1.466t-1.258-1.323c-.409-.393-.857-.431-1.048-.1l-3.907,8.03Z" transform="translate(-105.525 -2)"/><path class="cls-36" d="M212.192,264.649l-.009-4.827-.252-.144-8.991-3.807c-.407-.234-.76-.115-.849.289a11.329,11.329,0,0,0-.22,2.965,1.941,1.941,0,0,0,.872,1.454L210.2,263.5Z" transform="translate(-105.525 -2)"/><path class="cls-36" d="M219.283,275.869c.262-.205.272-.718.027-1.231L215.7,263.993l-.153-.32-3.35.976,1.206,2.523,2.686,8.7c.281.588.8.982,1.187.906A4.684,4.684,0,0,0,219.283,275.869Z" transform="translate(-105.525 -2)"/><path class="cls-37" d="M217.274,275.589a.9.9,0,0,1-.143-.216l-2.754-8.844-3.435-3.938-7.62-3.019a.831.831,0,0,1-.292-.5,11.247,11.247,0,0,1,.05-1.778l9.278,3.971,2.062-4.827c.282.288.561.588.831.9.387.443.761.911,1.116,1.392a.835.835,0,0,1,.139.287l-2.122,4.93s3.886,11.212,3.889,11.219A3.492,3.492,0,0,1,217.274,275.589Z" transform="translate(-105.525 -2)"/><polygon class="cls-13" points="266.423 346.208 286.452 343.68 322.484 323.015 329.639 305.278 330.044 301.336 315.627 311.602 301.284 321.112 282.779 330.396 267.839 330.71 266.423 346.208"/><path class="cls-7" d="M384.6,339.124l12.573-11.4s8.352-3.889,15.026-7.641a111.176,111.176,0,0,0,11.363-7.294l7.809-1.147s-7.567,7.779-10.161,10.734c-2.213,2.521-25.519,14.851-29.1,15.046A53.355,53.355,0,0,0,384.6,339.124Z" transform="translate(-105.525 -2)"/><polygon class="cls-13" points="264.194 330.082 271.776 330.082 282.023 330.082 287.586 325.172 288.831 322.176 277.204 324.526 262.994 322.726 244.133 313.356 254.782 323.843 264.194 330.082"/><path class="cls-25" d="M389.364,326.163a31.352,31.352,0,0,1-7.561,4.726c-.229.09-.452.17-.669.244a7.439,7.439,0,0,1-1.476.356c-.123.016-.245.027-.362.032a69.82,69.82,0,0,1-10.034-.223c-2.183-.244-9.839-3.329-12.064-5.522a26.961,26.961,0,0,1-3.87-4.89l1.46-1.88h.159c.048.005.111.005.186.011.048,0,.1,0,.154.01s.116.006.186.011a.543.543,0,0,0,.095.01.7.7,0,0,0,.117.011,10.809,10.809,0,0,1,2.2.436c.5.164,1.465.541,2.718,1.008.138.054.276.107.425.16a62.131,62.131,0,0,0,8.994,2.692c4.126.823,10.025,1.083,14.373,1.63.149.021.3.037.446.058h0c.606.085,1.179.17,1.71.271.382.064.733.138,1.067.217Z" transform="translate(-105.525 -2)"/><path class="cls-43" d="M370.026,323.355c4.126.823,10.025,1.083,14.373,1.63a17.444,17.444,0,0,1-5.012,2.776c-3.228.93-10.486.208-10.486.208s-8.363-2.952-8.406-3.706a28.161,28.161,0,0,1,.537-3.6A62.131,62.131,0,0,0,370.026,323.355Z" transform="translate(-105.525 -2)"/><path class="cls-7" d="M389.361,326.165a31.347,31.347,0,0,1-7.557,4.722c-.231.093-.453.173-.67.244a8.04,8.04,0,0,1-1.475.36c-.124.014-.244.027-.36.031a69.956,69.956,0,0,1-10.035-.222c-2.186-.244-9.84-3.332-12.065-5.526a27.137,27.137,0,0,1-3.874-4.887L354.787,319s.057,0,.159,0c.049,0,.112,0,.187.009.049,0,.1,0,.155.009l.183.013a.636.636,0,0,0,.1.009c.04,0,.08,0,.12.009l0,0-1.368,1.595s2.367,3.664,4.189,4.837,10.759,4.185,10.759,4.185,7.485.493,9.982,0c2.039-.4,5.944-3.3,7.312-4.367.382.067.737.142,1.07.222Z" transform="translate(-105.525 -2)"/><path class="cls-25" d="M436.178,297.014c-.08,0-.446,2.395-1.179,5.017a3.519,3.519,0,0,1-.807,1.238c-.579.674-6.281,4.38-9.355,4.253l-.08-.006,1.487-2.145.095-.133c0-.01.016-.016.021-.026,2.682-3.08,5.448-7.736,6.967-9.881a6.026,6.026,0,0,0,.754-2.358,9.581,9.581,0,0,0,.127-2.107,7.452,7.452,0,0,0-.887-1.971c-.706-1.231-1.577-2.522-1.667-2.649a22.491,22.491,0,0,1,3.249,5.209A18.115,18.115,0,0,1,436.178,297.014Z" transform="translate(-105.525 -2)"/><path class="cls-9" d="M384.34,337.75l12.574-11.4s8.332-4.262,15.006-8.014a111.037,111.037,0,0,0,11.363-7.294l7.829-.774s-7.568,7.779-10.162,10.734c-2.212,2.52-25.519,14.851-29.1,15.045A53.5,53.5,0,0,0,384.34,337.75Z" transform="translate(-105.525 -2)"/><path class="cls-26" d="M426.278,310.749c-2.446,2.539-6.065,6.327-7.7,8.192-2.213,2.521-25.519,14.852-29.1,15.046a10.641,10.641,0,0,0-1.142.141l-4,3.622a53.5,53.5,0,0,1,7.514-1.7c3.577-.194,26.884-12.525,29.1-15.045,2.594-2.955,10.162-10.734,10.162-10.734Z" transform="translate(-105.525 -2)"/><path class="cls-25" d="M431.112,302.477c0,.006,0,.011-.01.016a7.3,7.3,0,0,1-4.758,2.745c.006-.01.011-.016.016-.026.059-.1.128-.2.207-.313,1.429-2.209,5.034-8.411,6.022-9.95a8.355,8.355,0,0,0,.626-1.179,7.315,7.315,0,0,0,.558-2.066,4.575,4.575,0,0,0-.309-2.447,3.755,3.755,0,0,1-.143-.362c-.276-.854,1.471,1.8,1.71,4.769C435.2,295.745,433.555,299.764,431.112,302.477Z" transform="translate(-105.525 -2)"/><path class="cls-43" d="M434.3,295.564c0,2.05-2.166,5.119-3.186,6.913,0,.006,0,.011-.01.016a5.557,5.557,0,0,1-4.858,2.878l.095-.133c0-.01.016-.016.021-.026.059-.1.128-.2.207-.313,1.429-2.209,5.034-8.411,6.022-9.95a8.355,8.355,0,0,0,.626-1.179,7.315,7.315,0,0,0,.558-2.066,9.213,9.213,0,0,1,.308,1.269A15.482,15.482,0,0,1,434.3,295.564Z" transform="translate(-105.525 -2)"/><path class="cls-44" d="M359.7,320.3s-1.675-.63-1.982-.695c-.843-.177-1.49-.3-1.49-.3l-1.128,1.374a21.209,21.209,0,0,0,2.307,3.173,2.007,2.007,0,0,0,1.738-.661Z" transform="translate(-105.525 -2)"/><path class="cls-7" d="M336.685,310.287c-7.656-3.8-8.658-.965-14.21.455,15.387,4.3,21.146,12.331,23.894,17.7a111.232,111.232,0,0,1,4.782,10.923C351.989,341.012,354.144,323.769,336.685,310.287Z" transform="translate(-105.525 -2)"/><path class="cls-7" d="M336.685,310.287c-9.347-5.965-12.1-4.278-14.952-3.032-5.693,2.486-8.408,10.862-7.754,15.933.654,5.137,1.93,7.394,1.93,7.394s-1.047-8.147.327-10.927,1.669-4.843,5.333-7.46,11.184,1.08,11.184,1.08l8.135,4.122Z" transform="translate(-105.525 -2)"/><path class="cls-26" d="M351.792,345.319,353,352.663l-.548-.273-1.587-.916-1.209-7.388c0-10.493-7.412-23.28-16.558-28.56s-16.561-1.054-16.561,9.439l1.209,7.388-2.133-1.231-1.209-7.389c0-11.845,8.369-16.619,18.694-10.658S351.792,333.474,351.792,345.319Z" transform="translate(-105.525 -2)"/><path class="cls-26" d="M437.15,310.563c-4.179,5.035-7.177,7.171-12.5,11.446s-25.215,16.109-31.758,17.854-12.971,4.094-22.19,2-14.1-3.661-14.1-3.661l1.528,3.662s.741,9.207,5.845,9.861,14.214-.723,24.108-3.247,32.209-16.918,32.209-16.918l8.506-6.638,5.546-8.534,2.244-3.593Z" transform="translate(-105.525 -2)"/><path class="cls-7" d="M434.951,316.677l-.51,1.785-4.774,6.69-8.886,7.957-20.876,12.053-17.016,7-13.312,2.57-2.607.317L353,352.664l-.549-.273-1.115-.644c.117-1.51,1.384-2.782,1.664-3.538.5-1.377,5.125-6.342,5.125-6.342s3.256,6.515,7.8,7.7c.16.042.322.076.487.105a22.551,22.551,0,0,0,5.138.1,71.2,71.2,0,0,0,8.823-1.293l18.146-7.31,23.643-13.783,7.156-6.264,2.368-2.426,1.979-2.023.665-.471.023.473Z" transform="translate(-105.525 -2)"/><path class="cls-9" d="M380.374,348.481a14.242,14.242,0,0,1,9.554-5.5c3.86-.72,13.822-5.785,19.954-9.3s13.27-7.732,14.464-9.2,4.384-3.811,4.973-3.35c-.828,2.052-5.881,6.377-5.881,6.377a154.832,154.832,0,0,1-16.9,10.488C395.146,344.3,389.339,345.8,380.374,348.481Z" transform="translate(-105.525 -2)"/><path class="cls-25" d="M188.17,219.373l-9.044-4.176-1.644-.76-.96-6.708.9-3.158,6.522-6.606-.7,1.071S178,204.051,178,204.509a7.254,7.254,0,0,0,.862,1.6c.778,1.235,1.8,2.724,1.8,2.724l4.829,6.192Z" transform="translate(-105.525 -2)"/><polygon class="cls-45" points="69.803 212.384 73.654 208.127 73.654 204.614 72.473 202.509 77.723 197.036 78.421 195.965 71.899 202.571 70.998 205.729 69.803 212.384"/><path class="cls-46" d="M187.888,218.939l-.129.72-2.385.2-6.53-5.1-1.335-2.1.406-4.191s.52-2.212.662-2.794c.778,1.235,1.8,2.723,1.8,2.723l4.829,6.192Z" transform="translate(-105.525 -2)"/><path class="cls-47" d="M179.809,214.171l5.8,4.484,2-.167-2.4-3.894-4.829-6.192s-.579-.844-1.2-1.788c-.156.661-.3,1.267-.3,1.267l-.407,4.191Z" transform="translate(-105.525 -2)"/><polygon class="cls-25" points="305.081 309.413 303.944 311.691 300.925 311.923 302.062 309.645 305.081 309.413"/><path class="cls-7" d="M333.9,222.926c5.789-3.776,13.756-11.1,13.756-11.1l.506-1.418-.061-.064L281.619,248.72l36.6,43.14,10.052-2.936s-5.1-1.958-7.355-2.786-6.429-7.572-14.351-16.946-20.356-20.8-20.356-20.8,8.362-3.589,13.546-6.082S328.106,226.7,333.9,222.926Z" transform="translate(-105.525 -2)"/><path class="cls-8" d="M308.631,283.822c-1.237-.384-3.8.116-6.316.662s-4.41.5-4.609,2.95.594,3.042,1.639,3.2a14.662,14.662,0,0,0,6.016-.723c2.987-.868,3.408-1.358,3.874-2.182S309.865,284.206,308.631,283.822Z" transform="translate(-105.525 -2)"/><path class="cls-48" d="M238.723,68.047,342.225,8.29l.022,7.825C342.494,103.4,293.4,155.64,290.815,158.39c-2.591.238-51.822,4.769-52.069-82.519Zm90.219,7.342A209.583,209.583,0,0,0,336.236,26.9L244.8,79.695c.621,15.734,3.148,29.135,7.545,39.919,4.014,9.856,9.59,17.568,16.576,22.929a39.749,39.749,0,0,0,21.875,8.266,191.666,191.666,0,0,0,21.757-33.457,213.792,213.792,0,0,0,16.392-41.963Z" transform="translate(-105.525 -2)"/><path class="cls-4" d="M336.236,26.9a209.583,209.583,0,0,1-7.294,48.486,213.792,213.792,0,0,1-16.392,41.963,191.666,191.666,0,0,1-21.757,33.457,39.749,39.749,0,0,1-21.875-8.266c-6.986-5.361-12.562-13.073-16.576-22.929-4.4-10.784-6.924-24.185-7.545-39.919Z" transform="translate(-105.525 -2)"/><polygon class="cls-49" points="133.199 66.047 122.374 59.756 225.876 0 236.7 6.29 133.199 66.047"/><path class="cls-50" d="M238.746,75.871l-.023-7.824L227.9,61.756l.022,7.825c.139,48.872,15.633,68.96,29.7,77.134l10.824,6.29C254.378,144.832,238.884,124.743,238.746,75.871Z" transform="translate(-105.525 -2)"/><polygon class="cls-49" points="206.662 60.698 199.939 56.792 211.243 58.607 217.966 62.513 206.662 60.698"/><polygon class="cls-51" points="188.59 103.669 181.867 99.762 199.939 56.792 206.662 60.698 188.59 103.669"/><polygon class="cls-51" points="168.764 114.124 162.041 110.217 171.491 93.849 178.214 97.756 168.764 114.124"/><polygon class="cls-52" points="188.59 103.669 181.867 99.762 171.491 93.849 178.214 97.756 188.59 103.669"/><polygon class="cls-53" points="206.662 60.698 217.966 62.513 190.944 126.764 168.764 114.124 178.214 97.756 188.59 103.669 206.662 60.698"/><polygon class="cls-4" points="170.544 113.642 178.694 99.526 189.22 105.525 207.465 62.145 216.125 63.535 190.314 124.907 170.544 113.642"/><path class="cls-54" d="M313.332,235c1.506,3.091,5.621,2.225,6.79,1.488s10.915-6.237,12.388-7.363-.372-4.71-.372-4.71S321.292,230.8,313.332,235Z" transform="translate(-105.525 -2)"/><path class="cls-20" d="M327.4,232.892l-3.762,2.172a66.551,66.551,0,0,0-6.212,4.075h0a2.409,2.409,0,0,0-.853,2.312l.467,2.189a1.1,1.1,0,0,0,1.543.927h0a59.145,59.145,0,0,0,6.4-3.205l3.762-2.172a66.351,66.351,0,0,0,6.212-4.075h0a2.407,2.407,0,0,0,.853-2.311l-.467-2.189a1.1,1.1,0,0,0-1.543-.928h0A59.513,59.513,0,0,0,327.4,232.892Z" transform="translate(-105.525 -2)"/><path class="cls-20" d="M328.223,235.683c-.042-1.074-.274-4.041-.274-4.041l-3.742.078s.416,4.207.463,4.36c.211.684,1.124,1.441,1.516,1.4C327.105,237.385,328.269,236.843,328.223,235.683Z" transform="translate(-105.525 -2)"/><path class="cls-20" d="M327.635,230.738a1.574,1.574,0,0,1-.52,2.329,2.018,2.018,0,0,1-2.594-.521,1.574,1.574,0,0,1,.52-2.33A2.018,2.018,0,0,1,327.635,230.738Z" transform="translate(-105.525 -2)"/></g></g></svg>