<svg id="Layer_1" data-name="Layer 1" xmlns="http://www.w3.org/2000/svg" viewBox="0 0 582.062 228.472"><defs><style>.cls-1,.cls-2{fill:#626465;}.cls-1{opacity:0.42;}.cls-3{fill:#fff;}.cls-4{fill:#f7941d;}</style></defs><ellipse class="cls-1" cx="197.384" cy="222.095" rx="33.092" ry="6.376"/><path class="cls-2" d="M168.677,218.6s-.973,7.3,8.272,21.409,24.815,25.3,24.815,25.3l10.7,18-21.91,15.083S73.8,216.163,63.58,206.918s-15.028-13.546-20.923-27.734c-7.688-18.5,11.678-45.737,41.845-53.035,36.6-12.213,27.734-11.678,23.355-14.6s-49.63-13.624-49.63-13.624L97.639,85.764S157.973,96.955,164.3,99.388s28.707,11.191,20.436,23.842-44.764,22.868-45.25,28.22.486,6.326,6.811,10.218,25.788,11.678,25.788,11.678S164.785,192.322,168.677,218.6Z" transform="translate(-40.969 -85.764)"/><polygon class="cls-3" points="125.519 123.101 126.979 132.102 82.458 108.99 89.027 103.638 125.519 123.101"/><path class="cls-3" d="M108.83,186.969s-12.407-9-14.6-11.191-5.936-7.607-6.852-10.263c8.014-1.145,7.923-1.191,7.923-1.191s3.308,6.954,7.2,9.508,12.772,8.393,12.772,8.393Z" transform="translate(-40.969 -85.764)"/><path class="cls-3" d="M84.928,157.167s-1.521-2.736,1.338-6.568,9.123-8.157,9.123-8.157l7.359,1.338s-7.355,3.919-9.427,6.089c-2.254,2.361-1.521,7.3-1.521,7.3Z" transform="translate(-40.969 -85.764)"/><polygon class="cls-3" points="69.503 52.914 62.57 50.603 84.891 39.716 90.121 42.574 69.503 52.914"/><path class="cls-3" d="M134.435,124.2h7.843a.47.47,0,0,0,.319-.116c.69-.6,3.846-3.387,4.6-4.717.732-1.288,1.895-3.986,1.895-3.986l-6.365-.569a.485.485,0,0,0-.523.368,10.485,10.485,0,0,1-2.7,4.858A41.3,41.3,0,0,1,134.435,124.2Z" transform="translate(-40.969 -85.764)"/><path class="cls-3" d="M141.5,111.221l5.4-.9s-2.726-3.894-4.8-4.881-5.514-2.33-5.514-2.33l-5.294,1.362s5.834,1.253,7.576,3.011A14.276,14.276,0,0,1,141.5,111.221Z" transform="translate(-40.969 -85.764)"/><polygon class="cls-3" points="85.407 17.116 68.883 13.169 72.263 11.302 88.191 15.089 85.407 17.116"/><polygon class="cls-3" points="63.617 11.987 46.328 8.902 49.557 7.629 65.727 10.189 63.617 11.987"/><path class="cls-4" d="M352.529,161.267l-11.043,9.745q-5.818-8.094-11.845-8.094a7.2,7.2,0,0,0-4.8,1.571,4.572,4.572,0,0,0-1.867,3.541,6.066,6.066,0,0,0,1.334,3.728q1.813,2.343,10.935,10.064,8.533,7.137,10.349,9a31.246,31.246,0,0,1,6.428,8.76,21.886,21.886,0,0,1,1.894,9.133,20.938,20.938,0,0,1-6.665,15.922q-6.661,6.285-17.377,6.284a25.855,25.855,0,0,1-14.581-4.1q-6.212-4.1-10.636-12.887l12.534-7.562q5.654,10.384,13.014,10.384a9.582,9.582,0,0,0,6.453-2.236,6.655,6.655,0,0,0,2.614-5.166,8.922,8.922,0,0,0-1.974-5.325q-1.976-2.663-8.7-8.148-12.8-10.437-16.537-16.109a20.456,20.456,0,0,1-3.734-11.316,18.507,18.507,0,0,1,6.212-13.979,21.546,21.546,0,0,1,15.329-5.831,24.18,24.18,0,0,1,11.169,2.716Q346.343,154.079,352.529,161.267Z" transform="translate(-40.969 -85.764)"/><path class="cls-4" d="M366.481,171.012h14.7v27.9q0,8.148,1.121,11.317a9.877,9.877,0,0,0,3.6,4.926,10.31,10.31,0,0,0,6.113,1.757,10.673,10.673,0,0,0,6.165-1.731,10.152,10.152,0,0,0,3.763-5.085q.907-2.5.908-10.7V171.012h14.539v24.55q0,15.177-2.4,20.768a22.653,22.653,0,0,1-8.627,10.465q-5.7,3.645-14.485,3.647-9.533,0-15.417-4.261a22.494,22.494,0,0,1-8.28-11.874q-1.705-5.272-1.7-19.171Z" transform="translate(-40.969 -85.764)"/><path class="cls-4" d="M430.384,148.646h14.537v80.305H430.384Z" transform="translate(-40.969 -85.764)"/><path class="cls-4" d="M459.886,149.658h14.537v21.354h8.628v12.514h-8.628v45.425H459.886V183.526h-7.455V171.012h7.455Z" transform="translate(-40.969 -85.764)"/><path class="cls-4" d="M533.587,171.012h14.538v57.939H533.587v-6.124a28.506,28.506,0,0,1-8.537,5.831,23.9,23.9,0,0,1-9.282,1.784q-11.223,0-19.415-8.707t-8.19-21.647q0-13.419,7.924-21.993a25.254,25.254,0,0,1,19.256-8.574,24.464,24.464,0,0,1,9.786,1.971,26.724,26.724,0,0,1,8.458,5.911ZM518.3,182.941a14.687,14.687,0,0,0-11.2,4.766,17.172,17.172,0,0,0-4.459,12.221,17.356,17.356,0,0,0,4.537,12.355,14.7,14.7,0,0,0,11.172,4.846,14.976,14.976,0,0,0,11.359-4.766q4.509-4.765,4.511-12.488,0-7.561-4.511-12.248A15.17,15.17,0,0,0,518.3,182.941Z" transform="translate(-40.969 -85.764)"/><path class="cls-4" d="M562.823,171.012h14.538v5.938a34.887,34.887,0,0,1,8.959-5.8,21.652,21.652,0,0,1,8.216-1.63,19.888,19.888,0,0,1,14.624,6.018q5.052,5.112,5.052,15.123v38.289H599.833V203.579q0-10.373-.93-13.776a9.428,9.428,0,0,0-3.241-5.186,9.068,9.068,0,0,0-5.711-1.783,10.706,10.706,0,0,0-7.569,2.952A15.763,15.763,0,0,0,578,193.952q-.638,2.714-.637,11.754v23.245H562.823Z" transform="translate(-40.969 -85.764)"/><path class="cls-2" d="M307.713,241.2h35.058v11.9H331.215v51.532H318.968V253.1H307.713Z" transform="translate(-40.969 -85.764)"/><path class="cls-2" d="M347,257.715h10.091v5.908a12.612,12.612,0,0,1,4.355-5.3,10.514,10.514,0,0,1,5.951-1.811,11.008,11.008,0,0,1,4.787,1.207l-3.665,10.134a8.086,8.086,0,0,0-3.407-1.035q-2.717,0-4.592,3.363t-1.877,13.2l.044,2.286v18.974H347Z" transform="translate(-40.969 -85.764)"/><path class="cls-2" d="M412.631,257.715H424.4v46.918H412.631v-4.959a23.076,23.076,0,0,1-6.912,4.722,19.359,19.359,0,0,1-7.517,1.444,20.882,20.882,0,0,1-15.722-7.05,24.6,24.6,0,0,1-6.632-17.53q0-10.868,6.418-17.81a20.447,20.447,0,0,1,15.592-6.942,19.83,19.83,0,0,1,7.925,1.6,21.636,21.636,0,0,1,6.848,4.787Zm-12.375,9.659a11.9,11.9,0,0,0-9.069,3.86,13.916,13.916,0,0,0-3.61,9.9,14.06,14.06,0,0,0,3.674,10.005,11.907,11.907,0,0,0,9.047,3.923,12.125,12.125,0,0,0,9.2-3.859,14.109,14.109,0,0,0,3.653-10.112,13.708,13.708,0,0,0-3.653-9.919A12.285,12.285,0,0,0,400.256,267.374Z" transform="translate(-40.969 -85.764)"/><path class="cls-2" d="M482.233,267.2l-9.8,5.39a16.628,16.628,0,0,0-5.462-4.01,16.412,16.412,0,0,0-6.325-1.122A14.734,14.734,0,0,0,449.96,271.4a13.421,13.421,0,0,0-4.08,10.1,12.977,12.977,0,0,0,3.929,9.774,14.236,14.236,0,0,0,10.319,3.788q7.9,0,12.305-5.39l9.283,6.357q-7.548,9.815-21.3,9.814-12.375,0-19.384-7.331a24.383,24.383,0,0,1,5.909-38.724,28.378,28.378,0,0,1,13.649-3.277,27.673,27.673,0,0,1,12.549,2.781A23.819,23.819,0,0,1,482.233,267.2Z" transform="translate(-40.969 -85.764)"/><path class="cls-2" d="M492.927,239.6H504.7v37.455l17.336-19.343h14.785L516.609,280.2l22.629,24.432H524.624L504.7,283.01v21.623H492.927Z" transform="translate(-40.969 -85.764)"/><path class="cls-2" d="M591.076,284.581H553.257a12.583,12.583,0,0,0,4.378,7.956,13.73,13.73,0,0,0,9.077,2.954,15.7,15.7,0,0,0,11.341-4.614l9.918,4.657a23.411,23.411,0,0,1-8.883,7.784,27.791,27.791,0,0,1-12.29,2.522q-11.04,0-17.983-6.963a23.705,23.705,0,0,1-6.942-17.444q0-10.737,6.921-17.832a23.249,23.249,0,0,1,17.357-7.093q11.084,0,18.026,7.093t6.943,18.737ZM579.3,275.309a11.816,11.816,0,0,0-4.6-6.382,13.336,13.336,0,0,0-7.97-2.458,14.1,14.1,0,0,0-8.639,2.76,15.387,15.387,0,0,0-4.319,6.08Z" transform="translate(-40.969 -85.764)"/><path class="cls-2" d="M597.847,257.715h10.09v5.908a12.613,12.613,0,0,1,4.356-5.3,10.511,10.511,0,0,1,5.951-1.811,11.015,11.015,0,0,1,4.787,1.207l-3.665,10.134a8.09,8.09,0,0,0-3.407-1.035q-2.716,0-4.593,3.363t-1.876,13.2l.044,2.286v18.974H597.847Z" transform="translate(-40.969 -85.764)"/><path class="cls-4" d="M237.121,142.142a61.78,61.78,0,0,0-25.367,118.119l26.5,48.417,28.916-50.787a61.765,61.765,0,0,0-30.053-115.749Zm0,105.409a43.916,43.916,0,1,1,43.921-43.921A43.913,43.913,0,0,1,237.121,247.551Z" transform="translate(-40.969 -85.764)"/><path class="cls-2" d="M215.677,186.462h-5.72a1.43,1.43,0,0,0,0,2.86h5.72a1.43,1.43,0,0,0,0-2.86Z" transform="translate(-40.969 -85.764)"/><path class="cls-2" d="M261.369,190.32c-.272-.855-5.728-12.417-7.77-13.658-2.125-1.293-14.837-1.639-16.473-1.639s-14.348.346-16.473,1.639c-2.042,1.238-7.5,12.8-7.77,13.658a1.431,1.431,0,1,0,2.728.864c.449-1.422,5.408-11.1,6.5-12.06,1.209-.578,10.118-1.241,15.017-1.241s13.807.663,14.917,1.172c1.187,1.03,6.149,10.708,6.6,12.129a1.431,1.431,0,1,0,2.728-.864Z" transform="translate(-40.969 -85.764)"/><path class="cls-2" d="M215.677,215.061a1.41,1.41,0,0,0-1.362,1.09l-8.648-2.163v-.357a1.43,1.43,0,0,0-2.86,0v5.72a4.3,4.3,0,0,0,4.29,4.29h5.72a4.3,4.3,0,0,0,4.29-4.29v-2.86A1.431,1.431,0,0,0,215.677,215.061Z" transform="translate(-40.969 -85.764)"/><path class="cls-2" d="M270.014,212.2a1.431,1.431,0,0,0-1.43,1.43v.358l-8.648,2.162a1.408,1.408,0,0,0-1.361-1.09,1.431,1.431,0,0,0-1.43,1.43v2.86a4.3,4.3,0,0,0,4.29,4.29h5.72a4.3,4.3,0,0,0,4.289-4.29v-5.72A1.43,1.43,0,0,0,270.014,212.2Z" transform="translate(-40.969 -85.764)"/><path class="cls-2" d="M264.3,186.462h-5.72a1.43,1.43,0,0,0,0,2.86h5.72a1.43,1.43,0,0,0,0-2.86Z" transform="translate(-40.969 -85.764)"/><path class="cls-2" d="M271.333,199.952l-3.9.781c-.48.074-10.084,1.459-12.518,1.459-.349.277-.663,2.113-.626,3.832,8.717-.412,15.5-.958,15.612-.967l1.542-.209C271.439,202.952,271.41,201.334,271.333,199.952Z" transform="translate(-40.969 -85.764)"/><path class="cls-2" d="M268.988,193.666c-.641-.186-.975-.652-1.61-1.6l-.489-.715c-.855-1.193-2.508-1.244-4.107-1.29a11.045,11.045,0,0,1-1.6-.12,1.393,1.393,0,0,0-.489-.44c-2.668-1.468-12.778-3.038-23.565-3.038s-20.9,1.57-23.566,3.037a1.408,1.408,0,0,0-.491.444,11.2,11.2,0,0,1-1.6.12c-1.6.046-3.249.094-4.1,1.287l-.489.718c-.635.949-.969,1.415-1.61,1.6-1.121.329-1.736,1.479-2.076,3.569l2.825.707c.046,0,9.375,1.387,12.524,1.387a3.662,3.662,0,0,1,2.754,1.19c1.515,1.638,1.587,4.51,1.55,5.628,4.6.191,9.569.332,14.285.332s9.692-.14,14.3-.332c-.031-1.264.04-4.43,1.456-5.926a2.753,2.753,0,0,1,2.033-.892c1.851,0,9.318-1.021,12.038-1.416l4.092-.821C270.7,195.091,270.086,193.987,268.988,193.666Zm-21.852,9.955h-20.02a1.43,1.43,0,1,1,0-2.859h20.019a1.43,1.43,0,1,1,0,2.859Z" transform="translate(-40.969 -85.764)"/><path class="cls-2" d="M270.2,207.9c-.249.02-17.943,1.441-33.077,1.441s-32.829-1.421-33-1.433l-1.241-.128c.154,3.1.632,7.756,2.113,8.545,1.544.821,19.41,1.6,32.131,1.6s30.586-.775,32.128-1.6c1.487-.792,1.964-5.476,2.116-8.579Z" transform="translate(-40.969 -85.764)"/><path class="cls-2" d="M219.189,202.46a.8.8,0,0,0-.652-.268c-3.375,0-12.687-1.387-13.081-1.444l-2.549-.635c-.071,1.355-.1,2.942-.1,4.781l1.576.163c.092.009,6.875.552,15.592.967C220,204.992,219.866,203.192,219.189,202.46Z" transform="translate(-40.969 -85.764)"/></svg>