<svg xmlns="http://www.w3.org/2000/svg" xmlns:xlink="http://www.w3.org/1999/xlink" viewBox="0 0 346.646 160.559"><defs><style>.cls-1{fill:none;}.cls-2{isolation:isolate;}.cls-3{fill:url(#Безымянный_градиент_62);}.cls-4{fill:#c0dddc;mix-blend-mode:multiply;}.cls-5{fill:url(#Безымянный_градиент_62-2);}.cls-6{fill:url(#Безымянный_градиент_62-3);}.cls-7{fill:url(#Безымянный_градиент_62-4);}.cls-8{fill:#b8c4d1;}.cls-9{fill:url(#Безымянный_градиент_30);}.cls-10{fill:#d9e2ef;}.cls-11{clip-path:url(#clip-path);}.cls-12{fill:#edf4fc;}.cls-13{fill:url(#Безымянный_градиент_30-2);}.cls-14,.cls-30,.cls-31,.cls-33,.cls-34,.cls-37,.cls-38,.cls-39,.cls-40,.cls-41,.cls-42,.cls-43,.cls-44{mix-blend-mode:screen;}.cls-14{fill:url(#Безымянный_градиент_59);}.cls-15{fill:url(#Безымянный_градиент_19);}.cls-16{fill:url(#Безымянный_градиент_30-3);}.cls-17{fill:url(#Безымянный_градиент_30-4);}.cls-18{fill:url(#Безымянный_градиент_30-5);}.cls-19{fill:url(#Безымянный_градиент_3);}.cls-20{fill:url(#Безымянный_градиент_3-2);}.cls-21{fill:url(#Безымянный_градиент_5);}.cls-22{fill:url(#Безымянный_градиент_10);}.cls-23{fill:url(#Безымянный_градиент_30-6);}.cls-24{fill:url(#Безымянный_градиент_30-7);}.cls-25{fill:url(#Безымянный_градиент_30-8);}.cls-26{fill:url(#Безымянный_градиент_41);}.cls-27{fill:url(#Безымянный_градиент_30-9);}.cls-28{fill:url(#Безымянный_градиент_41-2);}.cls-29{fill:url(#Безымянный_градиент_41-3);}.cls-30{fill:url(#Безымянный_градиент_42);}.cls-31{fill:url(#Безымянный_градиент_42-2);}.cls-32{fill:url(#Безымянный_градиент_41-4);}.cls-33{fill:url(#Безымянный_градиент_42-3);}.cls-34{fill:url(#Безымянный_градиент_42-4);}.cls-35{fill:url(#Безымянный_градиент_41-5);}.cls-36{fill:url(#Безымянный_градиент_41-6);}.cls-37{fill:url(#Безымянный_градиент_30-10);}.cls-38{fill:url(#Безымянный_градиент_59-2);}.cls-39{fill:url(#Безымянный_градиент_59-3);}.cls-40{fill:url(#Безымянный_градиент_59-4);}.cls-41{fill:url(#Безымянный_градиент_18);}.cls-42{fill:url(#Безымянный_градиент_18-2);}.cls-43{fill:url(#Безымянный_градиент_18-3);}.cls-44{fill:url(#Безымянный_градиент_18-4);}</style><linearGradient id="Безымянный_градиент_62" x1="83.368" y1="65.076" x2="84.906" y2="130.543" gradientUnits="userSpaceOnUse"><stop offset="0" stop-color="#c1e0ba"/><stop offset="1" stop-color="#39a1a2"/></linearGradient><linearGradient id="Безымянный_градиент_62-2" x1="1507.811" y1="868.229" x2="1507.811" y2="973.33" gradientTransform="translate(-1510.781 955.303) rotate(-58.936)" xlink:href="#Безымянный_градиент_62"/><linearGradient id="Безымянный_градиент_62-3" x1="89.991" y1="65.076" x2="91.529" y2="130.543" gradientTransform="matrix(-1, 0, 0, 1, 378.583, 0)" xlink:href="#Безымянный_градиент_62"/><linearGradient id="Безымянный_градиент_62-4" x1="1511.229" y1="873.902" x2="1511.229" y2="979.003" gradientTransform="matrix(-0.516, -0.857, -0.857, 0.516, 1889.364, 955.303)" xlink:href="#Безымянный_градиент_62"/><linearGradient id="Безымянный_градиент_30" x1="196.439" y1="78.443" x2="271.862" y2="78.443" gradientUnits="userSpaceOnUse"><stop offset="0" stop-color="#2c3e63"/><stop offset="1" stop-color="#13192e"/></linearGradient><clipPath id="clip-path" transform="translate(-12.657 -16.971)"><path class="cls-1" d="M178.151,60.7H315.463a1.157,1.157,0,0,1,1.157,1.157v67.106a1.158,1.158,0,0,1-1.158,1.158H178.151a1.157,1.157,0,0,1-1.157-1.157V61.861A1.157,1.157,0,0,1,178.151,60.7Z" transform="translate(342.222 -151.393) rotate(90)"/></clipPath><linearGradient id="Безымянный_градиент_30-2" x1="231.933" y1="12.688" x2="236.368" y2="12.688" xlink:href="#Безымянный_градиент_30"/><linearGradient id="Безымянный_градиент_59" x1="234.151" y1="10.976" x2="234.151" y2="14.328" gradientUnits="userSpaceOnUse"><stop offset="0" stop-color="#2c3e63"/><stop offset="1"/></linearGradient><linearGradient id="Безымянный_градиент_19" x1="252.183" y1="50.582" x2="252.183" y2="82.522" gradientUnits="userSpaceOnUse"><stop offset="0" stop-color="#1966ff"/><stop offset="1" stop-color="#1d41cf"/></linearGradient><linearGradient id="Безымянный_градиент_30-3" x1="142.317" y1="141.652" x2="142.317" y2="134.71" xlink:href="#Безымянный_градиент_30"/><linearGradient id="Безымянный_градиент_30-4" x1="81.834" y1="151.052" x2="81.834" y2="135.373" xlink:href="#Безымянный_градиент_30"/><linearGradient id="Безымянный_градиент_30-5" x1="-542.578" y1="168.023" x2="-542.578" y2="152.344" gradientTransform="matrix(1, 0, 0, -1, 760.976, 312.444)" xlink:href="#Безымянный_градиент_30"/><linearGradient id="Безымянный_градиент_3" x1="94.951" y1="87.585" x2="94.721" y2="96.397" gradientUnits="userSpaceOnUse"><stop offset="0" stop-color="#f2b90f"/><stop offset="1" stop-color="#f27405"/></linearGradient><linearGradient id="Безымянный_градиент_3-2" x1="-541.138" y1="87.585" x2="-541.368" y2="96.397" gradientTransform="matrix(-1, 0, 0, 1, -323.201, 0)" xlink:href="#Безымянный_градиент_3"/><linearGradient id="Безымянный_градиент_5" x1="156.448" y1="67.04" x2="156.448" y2="120.44" gradientUnits="userSpaceOnUse"><stop offset="0" stop-color="#f2b90f"/><stop offset="0.52" stop-color="#f27405"/><stop offset="1" stop-color="#f2b90f"/></linearGradient><linearGradient id="Безымянный_градиент_10" x1="83.004" y1="132.043" x2="227.602" y2="132.043" gradientUnits="userSpaceOnUse"><stop offset="0" stop-color="#f27405"/><stop offset="0.021" stop-color="#f27906"/><stop offset="0.145" stop-color="#f2950a"/><stop offset="0.269" stop-color="#f2a90d"/><stop offset="0.394" stop-color="#f2b50e"/><stop offset="0.52" stop-color="#f2b90f"/><stop offset="0.633" stop-color="#f2b50e"/><stop offset="0.751" stop-color="#f2a80d"/><stop offset="0.871" stop-color="#f2930a"/><stop offset="0.991" stop-color="#f27605"/><stop offset="1" stop-color="#f27405"/></linearGradient><linearGradient id="Безымянный_градиент_30-6" x1="189.923" y1="67.131" x2="120.285" y2="109.443" xlink:href="#Безымянный_градиент_30"/><linearGradient id="Безымянный_градиент_30-7" x1="156.637" y1="149.467" x2="156.393" y2="124.947" xlink:href="#Безымянный_градиент_30"/><linearGradient id="Безымянный_градиент_30-8" x1="92.936" y1="150.75" x2="92.86" y2="143.072" xlink:href="#Безымянный_градиент_30"/><linearGradient id="Безымянный_градиент_41" x1="92.921" y1="149.223" x2="92.871" y2="144.231" gradientUnits="userSpaceOnUse"><stop offset="0" stop-color="#ebeff7"/><stop offset="1" stop-color="#b3b6c2"/></linearGradient><linearGradient id="Безымянный_градиент_30-9" x1="-543.153" y1="150.75" x2="-543.23" y2="143.072" gradientTransform="matrix(-1, 0, 0, 1, -323.201, 0)" xlink:href="#Безымянный_градиент_30"/><linearGradient id="Безымянный_градиент_41-2" x1="-543.168" y1="149.223" x2="-543.218" y2="144.231" gradientTransform="matrix(-1, 0, 0, 1, -323.201, 0)" xlink:href="#Безымянный_градиент_41"/><linearGradient id="Безымянный_градиент_41-3" x1="101.609" y1="127.383" x2="101.468" y2="113.243" xlink:href="#Безымянный_градиент_41"/><radialGradient id="Безымянный_градиент_42" cx="80.941" cy="101.944" r="4.475" xlink:href="#Безымянный_градиент_41"/><radialGradient id="Безымянный_градиент_42-2" cx="91.136" cy="104.405" r="3.735" xlink:href="#Безымянный_градиент_41"/><linearGradient id="Безымянный_градиент_41-4" x1="-535.46" y1="127.383" x2="-535.601" y2="113.243" gradientTransform="matrix(-1, 0, 0, 1, -324.18, 0)" xlink:href="#Безымянный_градиент_41"/><radialGradient id="Безымянный_градиент_42-3" cx="-543.471" cy="118.915" r="4.475" gradientTransform="matrix(-1, 0, 0, 1, -336.837, -16.971)" xlink:href="#Безымянный_градиент_41"/><radialGradient id="Безымянный_градиент_42-4" cx="-533.277" cy="121.376" r="3.735" gradientTransform="matrix(-1, 0, 0, 1, -336.837, -16.971)" xlink:href="#Безымянный_градиент_41"/><linearGradient id="Безымянный_градиент_41-5" x1="164.554" y1="113.181" x2="110.832" y2="144.16" xlink:href="#Безымянный_градиент_41"/><linearGradient id="Безымянный_градиент_41-6" x1="156.448" y1="125.925" x2="156.448" y2="129.039" xlink:href="#Безымянный_градиент_41"/><linearGradient id="Безымянный_градиент_30-10" x1="177.072" y1="92.289" x2="177.248" y2="74.678" xlink:href="#Безымянный_градиент_30"/><linearGradient id="Безымянный_градиент_59-2" x1="156.48" y1="120.49" x2="156.676" y2="100.808" xlink:href="#Безымянный_градиент_59"/><linearGradient id="Безымянный_градиент_59-3" x1="223.028" y1="88.543" x2="223.028" y2="94.473" xlink:href="#Безымянный_градиент_59"/><linearGradient id="Безымянный_градиент_59-4" x1="89.945" y1="88.543" x2="89.945" y2="94.473" xlink:href="#Безымянный_градиент_59"/><radialGradient id="Безымянный_градиент_18" cx="91.136" cy="104.405" r="27.546" gradientUnits="userSpaceOnUse"><stop offset="0" stop-color="#f7e3bc"/><stop offset="0.128" stop-color="#c7b797"/><stop offset="0.304" stop-color="#8b806a"/><stop offset="0.473" stop-color="#595244"/><stop offset="0.632" stop-color="#332e26"/><stop offset="0.777" stop-color="#171511"/><stop offset="0.904" stop-color="#060505"/><stop offset="1"/></radialGradient><radialGradient id="Безымянный_градиент_18-2" cx="103.792" cy="121.376" r="15.613" gradientTransform="translate(197.87 -7.676) rotate(76.626)" xlink:href="#Безымянный_градиент_18"/><radialGradient id="Безымянный_градиент_18-3" cx="196.439" cy="104.405" r="27.546" xlink:href="#Безымянный_градиент_18"/><radialGradient id="Безымянный_градиент_18-4" cx="209.096" cy="121.376" r="15.613" gradientTransform="translate(61.614 -70.203) rotate(22.276)" xlink:href="#Безымянный_градиент_18"/></defs><g class="cls-2"><g id="OBJECTS"><path class="cls-3" d="M104.257,105.558c9.983,26.741-1.688,55.8-1.688,55.8s-27.858-14.3-37.841-41.039,1.688-55.8,1.688-55.8S94.274,78.818,104.257,105.558Z" transform="translate(-12.657 -16.971)"/><path class="cls-4" d="M101.4,106.419a.491.491,0,1,0-.935-.3l-8.413,26.108-6.822-18.053,7.325-26.3a.491.491,0,1,0-.946-.264l-6.966,25.011L76.815,91.9l3.33-11.894a.492.492,0,0,0-.947-.266l-2.97,10.608L67.693,67.762a.478.478,0,0,0-.634-.287.493.493,0,0,0-.286.634l8.444,22.346L66.86,83.93a.492.492,0,0,0-.6.776l9.63,7.519,7.835,20.734L63.662,98.489a.492.492,0,1,0-.575.8l21.264,15.34,6.77,17.916-24.454-15a.492.492,0,1,0-.513.839l25.535,15.658,4.792,12.682-12.534-7.368a.492.492,0,0,0-.5.848l13.588,7.986,3.836,10.152a.492.492,0,0,0,.618.292l.016,0a.494.494,0,0,0,.287-.634l-3.823-10.116,7.607-15.417a.491.491,0,1,0-.882-.434l-7.2,14.593L92.61,133.7Z" transform="translate(-12.657 -16.971)"/><path class="cls-5" d="M67.813,121.327c24.45,14.729,33.383,44.74,33.383,44.74S70.49,172.2,46.04,157.47s-33.383-44.74-33.383-44.74S43.363,106.6,67.813,121.327Z" transform="translate(-12.657 -16.971)"/><path class="cls-4" d="M66.112,123.778a.491.491,0,1,0-.92.345L74.843,149.8l-16.57-9.893L47.65,114.756a.491.491,0,0,0-.9.382l10.1,23.918L37.83,127.7l-4.79-11.384a.492.492,0,0,0-.907.381l4.273,10.153L15.673,114.474a.478.478,0,0,0-.674.17.492.492,0,0,0,.169.674L35.68,127.564l-10.6.089a.492.492,0,1,0,.009.983l12.217-.1L56.336,139.9l-24.707,1.146a.492.492,0,1,0,.046.982l26.192-1.215,16.444,9.818L45.836,154.1a.492.492,0,0,0,.12.976l29.733-3.623L87.33,158.4l-14.4,2.028a.492.492,0,1,0,.136.974l15.607-2.2,9.318,5.563a.494.494,0,0,0,.666-.156l.009-.014a.494.494,0,0,0-.17-.675l-9.285-5.543-3.633-16.8a.492.492,0,0,0-.961.209l3.439,15.905L76.2,150.607Z" transform="translate(-12.657 -16.971)"/><path class="cls-6" d="M267.7,105.558c-9.984,26.741,1.688,55.8,1.688,55.8s27.858-14.3,37.841-41.039-1.688-55.8-1.688-55.8S277.686,78.818,267.7,105.558Z" transform="translate(-12.657 -16.971)"/><path class="cls-4" d="M270.559,106.419a.491.491,0,1,1,.935-.3l8.413,26.108,6.822-18.053-7.325-26.3a.491.491,0,0,1,.946-.264l6.966,25.011L295.145,91.9l-3.33-11.894a.492.492,0,0,1,.947-.266l2.97,10.608,8.535-22.587a.478.478,0,0,1,.634-.287.493.493,0,0,1,.286.634l-8.444,22.346L305.1,83.93a.492.492,0,0,1,.6.776l-9.63,7.519-7.835,20.734L308.3,98.489a.492.492,0,0,1,.575.8l-21.264,15.34-6.77,17.916,24.454-15a.492.492,0,1,1,.513.839l-25.535,15.658-4.792,12.682,12.534-7.368a.492.492,0,0,1,.5.848l-13.588,7.986-3.836,10.152a.492.492,0,0,1-.618.292l-.016,0a.494.494,0,0,1-.287-.634l3.823-10.116-7.607-15.417a.491.491,0,1,1,.882-.434l7.2,14.593L279.35,133.7Z" transform="translate(-12.657 -16.971)"/><path class="cls-7" d="M304.147,121.327c-24.45,14.729-33.383,44.74-33.383,44.74s30.706,6.132,55.156-8.6S359.3,112.73,359.3,112.73,328.6,106.6,304.147,121.327Z" transform="translate(-12.657 -16.971)"/><path class="cls-4" d="M305.848,123.778a.491.491,0,1,1,.92.345L297.117,149.8l16.57-9.893,10.623-25.15a.491.491,0,1,1,.9.382l-10.1,23.918L334.13,127.7l4.79-11.384a.492.492,0,0,1,.907.381l-4.273,10.153,20.733-12.378a.478.478,0,0,1,.674.17.492.492,0,0,1-.169.674L336.28,127.564l10.6.089a.492.492,0,0,1-.009.983l-12.218-.1L315.624,139.9l24.707,1.146a.492.492,0,0,1-.046.982l-26.192-1.215-16.445,9.818,28.476,3.469a.492.492,0,1,1-.12.976l-29.734-3.623-11.64,6.95,14.4,2.028a.492.492,0,1,1-.136.974l-15.607-2.2-9.318,5.563a.494.494,0,0,1-.666-.156l-.009-.014a.494.494,0,0,1,.17-.675l9.285-5.543,3.633-16.8a.491.491,0,1,1,.96.209L283.9,157.689l11.863-7.082Z" transform="translate(-12.657 -16.971)"/><path class="cls-8" d="M247.361,168.454c0,1.014-40.7,1.837-90.913,1.837s-90.913-.823-90.913-1.837,40.7-1.836,90.913-1.836S247.361,167.44,247.361,168.454Z" transform="translate(-12.657 -16.971)"/><rect class="cls-9" x="196.439" y="5.63" width="75.422" height="145.626" rx="4.157"/><path class="cls-10" d="M178.151,60.7H315.463a1.157,1.157,0,0,1,1.157,1.157v67.106a1.158,1.158,0,0,1-1.158,1.158H178.151a1.157,1.157,0,0,1-1.157-1.157V61.861A1.157,1.157,0,0,1,178.151,60.7Z" transform="translate(329.565 -168.364) rotate(90)"/><g class="cls-11"><path class="cls-12" d="M279.516,61.716c-1.68-1.218-3.289-2.385-4.768-3.479a42.172,42.172,0,0,0-10.267-5.682L250.573,21.682l-2.975,1.34,12.734,28.269a31.012,31.012,0,0,0-18.871,1.463L225.489,16.971l-2.976,1.341,15.956,35.745-15.244,6.867L209.4,30.238l-1.218,10.539,10.082,22.381-15.244,6.867L192.94,47.644l-2.975,1.341L219.6,114.767l1.488-.67c3.092-1.393,10.557-1.559,19.715-.914l2.513,5.579c-4.053,3.029-12.476,10.344-13.214,19.259l-7.633,3.439L182.354,52.413l-1.984.894,40.114,89.047-11.4,5.138L168.965,58.445l-1.984.894,53.45,118.191,1.984-.893-12.443-27.162,11.406-5.138,15.056,32.746,1.984-.893-15.056-32.746,6.729-3.032a15.8,15.8,0,0,0,2.044,6.548c4.228,7.564,10.452,8.1,15.056,6.028.167-.075.331-.154.493-.235a14.961,14.961,0,0,0,7.187-8.338L268,171.408l4.959-2.234-25.953-55.456c6.293.631,13.045,1.56,19.543,2.678l17.992,39.274,2.976-1.34L270.446,117.1a150.7,150.7,0,0,1,22.014,5.515l3.041,6.751,2.975-1.341L283.867,95.589a34.825,34.825,0,0,0,15.382-.693,16.235,16.235,0,0,0,2.2-.793c2.528-1.138,3.99-2.759,4.355-4.837C307.026,82.289,295.158,73.058,279.516,61.716Zm-35.287,59.075,4.069,9.033-15.857,7.143C233.693,129.684,240.528,123.606,244.229,120.791Zm2.477,30.018c-4.839,2.45-9.588.608-12.673-4.91a13.435,13.435,0,0,1-1.79-6.456l16.949-7.635,4.216,9.359A12.685,12.685,0,0,1,246.706,150.809Zm15.353-95.685,16.185,35.929c-1.314-.337-2.6-.691-3.86-1.038-6.053-1.671-11.8-3.246-16.9-1.683L242.8,55.732A27.592,27.592,0,0,1,262.059,55.124Zm-22.25,1.908,14.657,32.536-15.244,6.867L224.565,63.9Zm-20.2,9.1,14.657,32.535-15.244,6.867L204.363,73Zm1.684,44.443-.93-2.065,15.243-6.867,3.667,8.138C231.605,109.337,225.115,109.507,221.29,110.576Zm24.155-.327L240.562,99.41l15.244-6.867,9.122,20.25C258.414,111.71,251.7,110.82,245.445,110.249Zm45.188,8.305a189.489,189.489,0,0,0-21.823-5.088l-9.97-22.133c4.108-1.084,9.051.275,14.676,1.828,2.067.57,4.211,1.158,6.426,1.661ZM302.586,88.7c-.226,1.286-1.654,2.316-4.238,3.059a33.465,33.465,0,0,1-16.111.211L266.458,56.943a42.264,42.264,0,0,1,6.349,3.917c1.487,1.1,3.1,2.273,4.793,3.5C287.936,71.852,303.556,83.179,302.586,88.7Z" transform="translate(-12.657 -16.971)"/></g><circle class="cls-13" cx="234.151" cy="12.688" r="2.217"/><circle class="cls-14" cx="234.151" cy="12.688" r="1.736"/><path class="cls-15" d="M252.183,51.179A11.481,11.481,0,0,0,240.7,62.66c0,7.678,11.481,19.931,11.481,19.931s11.482-12.115,11.482-19.931A11.482,11.482,0,0,0,252.183,51.179Zm0,18.831a7.358,7.358,0,1,1,7.358-7.358A7.359,7.359,0,0,1,252.183,70.01Z" transform="translate(-12.657 -16.971)"/><rect class="cls-16" x="85.192" y="128.968" width="114.249" height="12.214"/><path class="cls-17" d="M71.64,127.018H92.028a0,0,0,0,1,0,0v20.721a3.744,3.744,0,0,1-3.744,3.744h-12.9a3.744,3.744,0,0,1-3.744-3.744V127.018A0,0,0,0,1,71.64,127.018Z"/><path class="cls-18" d="M211.948,143.989h12.9a3.744,3.744,0,0,1,3.744,3.744v20.721a0,0,0,0,1,0,0H208.2a0,0,0,0,1,0,0V147.733A3.744,3.744,0,0,1,211.948,143.989Z" transform="translate(424.139 295.472) rotate(180)"/><path class="cls-19" d="M101.041,97.062l-12.116-.6a4.4,4.4,0,0,1-4.183-4.4h0a4.4,4.4,0,0,1,4.4-4.4h3.924A5.615,5.615,0,0,1,98.2,90.99l1.018,2.284H104.9Z" transform="translate(-12.657 -16.971)"/><path class="cls-20" d="M211.847,97.062l12.117-.6a4.4,4.4,0,0,0,4.182-4.4h0a4.4,4.4,0,0,0-4.4-4.4h-3.924a5.617,5.617,0,0,0-5.13,3.329l-1.018,2.284h-5.681Z" transform="translate(-12.657 -16.971)"/><path class="cls-21" d="M230.721,119.222v23.6a10.069,10.069,0,0,1-.994,4.337l-1.355,2.838a10.011,10.011,0,0,1-9.032,5.676H201.159a9.992,9.992,0,0,1-3.616-.677l-2.81-1.081a23.829,23.829,0,0,0-8.672-1.628H126.836a23.849,23.849,0,0,0-8.687,1.628l-2.809,1.081a10,10,0,0,1-3.616.677H93.543a9.991,9.991,0,0,1-9.019-5.676l-1.368-2.838a10.041,10.041,0,0,1-.98-4.337v-23.6a10,10,0,0,1,2.752-6.9l3.716-3.9c0-.015,0-.015.015-.029l.187-.187L101.063,95.35a119.946,119.946,0,0,1,13.2-25.226s6.022-2.693,40.914-2.809V67.3h2.536v.014c34.907.116,40.928,2.809,40.928,2.809a119.982,119.982,0,0,1,13.2,25.226l13.21,13.9h.015l2.91,3.069A10.065,10.065,0,0,1,230.721,119.222Z" transform="translate(-12.657 -16.971)"/><path class="cls-22" d="M230.721,119.222v23.6a10.069,10.069,0,0,1-.994,4.337l-1.355,2.838a10.011,10.011,0,0,1-9.032,5.676H201.159a9.992,9.992,0,0,1-3.616-.677l-2.81-1.081a23.829,23.829,0,0,0-8.672-1.628H126.836a23.849,23.849,0,0,0-8.687,1.628l-2.809,1.081a10,10,0,0,1-3.616.677H93.543a9.991,9.991,0,0,1-9.019-5.676l-1.368-2.838a10.041,10.041,0,0,1-.98-4.337v-23.6a10,10,0,0,1,2.752-6.9l3.716-3.9c-1.527,2.68,23.569,12.173,35.109,12.966,11.871.806,53.851.432,65.391,0s32.976-7.607,35.9-12.131h.015l2.91,3.069A10.065,10.065,0,0,1,230.721,119.222Z" transform="translate(-12.657 -16.971)"/><path class="cls-23" d="M208.391,95.134c-3.847-.216-10.143-.418-17.058-.605-2.492-.058-5.085-.13-7.664-.187-8.413-.187-16.783-.317-22.171-.389-2.3-.029-4.063-.043-5.057-.043-5.993,0-40.223.561-51.95,1.224,1.787-6.3,7.895-16.437,11.137-22.085a45.78,45.78,0,0,1,9.09-1.685c3.558-.389,7.636-.634,11.957-.778,3.357-.116,6.844-.188,10.359-.216,3.155-.044,6.324-.044,9.407-.044,1.585,0,3.2,0,4.826.015,1.153,0,2.32,0,3.472.014,9.609.072,19.189.36,26.09,1.325a37.922,37.922,0,0,1,6.425,1.369c1.11,1.931,2.565,4.394,4.077,7.059,1.211,2.161,2.435,4.423,3.559,6.641.864,1.73,1.657,3.415,2.29,4.985A29.621,29.621,0,0,1,208.391,95.134Z" transform="translate(-12.657 -16.971)"/><path class="cls-24" d="M189.141,121.376s-20.074,1.168-32.7,1.168c-14.342,0-32.7-1.168-32.7-1.168s-10.852,4.087-10.852,8.738c0,3.576,6.278,13.236,9.179,17.508a4.746,4.746,0,0,0,3.934,2.082h60.87a4.747,4.747,0,0,0,3.935-2.082c2.9-4.272,9.178-13.932,9.178-17.508C199.992,125.463,189.141,121.376,189.141,121.376Z" transform="translate(-12.657 -16.971)"/><path class="cls-25" d="M97.426,146.385a4.534,4.534,0,1,1-4.533-4.533A4.534,4.534,0,0,1,97.426,146.385Z" transform="translate(-12.657 -16.971)"/><path class="cls-26" d="M95.841,146.385a2.948,2.948,0,1,1-2.948-2.948A2.948,2.948,0,0,1,95.841,146.385Z" transform="translate(-12.657 -16.971)"/><path class="cls-27" d="M215.462,146.385A4.534,4.534,0,1,0,220,141.852,4.534,4.534,0,0,0,215.462,146.385Z" transform="translate(-12.657 -16.971)"/><path class="cls-28" d="M217.048,146.385A2.948,2.948,0,1,0,220,143.437,2.948,2.948,0,0,0,217.048,146.385Z" transform="translate(-12.657 -16.971)"/><path class="cls-29" d="M90.787,111.137c-2.188-.273-4.7,1.342-5.878,4.453a16.728,16.728,0,0,0-.534,6.54c5.637,5.637,18.814,5.778,22.267,5.426s11.275-4.722,12.12-6.624S94.169,111.56,90.787,111.137Z" transform="translate(-12.657 -16.971)"/><circle class="cls-30" cx="80.942" cy="101.944" r="4.475"/><circle class="cls-31" cx="91.136" cy="104.405" r="3.735"/><path class="cls-32" d="M222.1,111.137c2.188-.273,4.7,1.342,5.878,4.453a16.727,16.727,0,0,1,.535,6.54c-5.637,5.637-18.815,5.778-22.267,5.426s-11.275-4.722-12.121-6.624S218.719,111.56,222.1,111.137Z" transform="translate(-12.657 -16.971)"/><circle class="cls-33" cx="206.634" cy="101.944" r="4.475"/><circle class="cls-34" cx="196.439" cy="104.405" r="3.735"/><rect class="cls-35" x="126.251" y="120.535" width="35.703" height="8.879" rx="0.505"/><path class="cls-36" d="M159.7,131.093h-6.5a2.576,2.576,0,0,1-2.576-2.576h0a2.576,2.576,0,0,1,2.576-2.577h6.5a2.576,2.576,0,0,1,2.576,2.577h0A2.576,2.576,0,0,1,159.7,131.093Z" transform="translate(-12.657 -16.971)"/><path class="cls-37" d="M205.361,91.8a106.087,106.087,0,0,1-23.749.595c-13.7-1.3-27.84-12.692-32.62-20.617,2.957-.041,5.927-.041,8.817-.041,1.485,0,3,0,4.523.014,1.08,0,2.173,0,3.254.013,9,.067,17.984.338,24.451,1.242a35.5,35.5,0,0,1,6.022,1.283c1.039,1.809,2.4,4.118,3.821,6.616,1.134,2.025,2.282,4.145,3.335,6.224C204.025,88.75,204.767,90.33,205.361,91.8Z" transform="translate(-12.657 -16.971)"/><path class="cls-38" d="M100.058,98.233c-5.215,5.215-9.637,8.44-7.893,10.184s26.636,11.8,39.743,11.8,48.339,2.284,58.346-.831,29.393-8.147,31-9.758-9.161-11.4-9.161-11.4Z" transform="translate(-12.657 -16.971)"/><path class="cls-39" d="M221.964,95.415h2.127a3.5,3.5,0,0,0,3.5-3.5h0a3.5,3.5,0,0,0-3.5-3.5h-2.127a3.5,3.5,0,0,0-3.5,3.5h0A3.5,3.5,0,0,0,221.964,95.415Z" transform="translate(-12.657 -16.971)"/><path class="cls-40" d="M88.882,95.415h2.126a3.5,3.5,0,0,0,3.5-3.5h0a3.5,3.5,0,0,0-3.5-3.5H88.882a3.5,3.5,0,0,0-3.5,3.5h0A3.5,3.5,0,0,0,88.882,95.415Z" transform="translate(-12.657 -16.971)"/><path class="cls-8" d="M149.459,53.473a1.9,1.9,0,0,1-.49-3.049,11.641,11.641,0,0,1,16.533.1,1.9,1.9,0,1,1-2.713,2.662,7.838,7.838,0,0,0-11.14-.069A1.9,1.9,0,0,1,149.459,53.473Z" transform="translate(-12.657 -16.971)"/><path class="cls-8" d="M143.606,47.6a1.882,1.882,0,0,1-.5-.359,1.9,1.9,0,0,1,.006-2.688,19.932,19.932,0,0,1,28.315.178,1.9,1.9,0,1,1-2.716,2.659,16.13,16.13,0,0,0-22.917-.143A1.9,1.9,0,0,1,143.606,47.6Z" transform="translate(-12.657 -16.971)"/><path class="cls-8" d="M137.993,41.978a1.921,1.921,0,0,1-.5-.359,1.9,1.9,0,0,1,0-2.688,27.876,27.876,0,0,1,39.613.249,1.9,1.9,0,1,1-2.717,2.658,24.076,24.076,0,0,0-34.213-.215A1.9,1.9,0,0,1,137.993,41.978Z" transform="translate(-12.657 -16.971)"/><circle class="cls-41" cx="91.136" cy="104.405" r="27.546"/><circle class="cls-42" cx="103.792" cy="121.376" r="15.613" transform="translate(-50.956 177.309) rotate(-76.626)"/><circle class="cls-43" cx="196.439" cy="104.405" r="27.546"/><circle class="cls-44" cx="209.096" cy="121.376" r="15.613" transform="translate(-43.061 71.348) rotate(-22.276)"/></g></g></svg>