<svg xmlns="http://www.w3.org/2000/svg" viewBox="0 0 708.954 438.851"><defs><style>.cls-1,.cls-11,.cls-2{fill:none;}.cls-1,.cls-10,.cls-11,.cls-12,.cls-13,.cls-14,.cls-2,.cls-7,.cls-8,.cls-9{stroke:#263238;}.cls-1,.cls-13,.cls-14,.cls-2,.cls-7,.cls-8{stroke-linecap:round;}.cls-1,.cls-13,.cls-14,.cls-7,.cls-8{stroke-linejoin:round;}.cls-10,.cls-11,.cls-12,.cls-2,.cls-9{stroke-miterlimit:10;}.cls-14,.cls-3{fill:#f7941d;}.cls-12,.cls-13,.cls-4,.cls-6{fill:#fff;}.cls-4{opacity:0.58;}.cls-5,.cls-7,.cls-9{fill:#263238;}.cls-6{opacity:0.31;}.cls-8{fill:#787878;}.cls-10{fill:#b2b2b2;}</style></defs><g id="Characters"><line class="cls-1" x1="2.943" y1="438.265" x2="702.12" y2="438.265"/><path class="cls-2" d="M301.843,40.74s-3.264-8.7-10.879-10.335-10.606,2.992-12.238,6.8-6.527.815-10.607.271-6.255,3.536-7.071,6.528-5.983-1.36-10.606,1.359-5.439,6.255-6.527,7.071-4.079-.544-5.711,1.632l-1.632,2.176H321.7s2.719-6.255-2.448-10.879S305.106,47.811,301.843,40.74Z" transform="translate(-24.864 -29.568)"/><path class="cls-2" d="M536.826,48.788S531.1,33.522,517.744,30.66s-18.606,5.247-21.468,11.926-11.45,1.431-18.606.477-10.972,6.2-12.4,11.45-10.5-2.386-18.606,2.385S437.12,67.87,435.212,69.3s-7.156-.955-10.019,2.862l-2.862,3.817H571.652s4.77-10.973-4.294-19.083S542.551,61.192,536.826,48.788Z" transform="translate(-24.864 -29.568)"/><path class="cls-2" d="M154.918,74.673s-2.249-6-7.5-7.123-7.31,2.062-8.435,4.686-4.5.562-7.311.187-4.311,2.437-4.873,4.5-4.124-.937-7.311.937-3.749,4.312-4.5,4.874-2.811-.375-3.936,1.125l-1.125,1.5H168.6a6.753,6.753,0,0,0-1.687-7.5C163.353,74.673,157.167,79.547,154.918,74.673Z" transform="translate(-24.864 -29.568)"/><path class="cls-2" d="M581.976,100.225s-2.25-6-7.5-7.123-7.311,2.062-8.435,4.686-4.5.563-7.311.188-4.311,2.437-4.874,4.5-4.123-.937-7.31.938-3.749,4.311-4.5,4.873-2.812-.375-3.936,1.125l-1.125,1.5H595.66a6.753,6.753,0,0,0-1.687-7.5C590.411,100.225,584.225,105.1,581.976,100.225Z" transform="translate(-24.864 -29.568)"/><polyline class="cls-2" points="47.791 271.208 77.366 271.208 77.366 181.536 103.42 181.536 103.42 139.64 152.711 139.64 152.711 222.697 165.386 222.697 165.386 61.608 219.607 61.608 219.607 132.29 253.407 132.29 253.407 71.284 311.149 71.284 311.149 208.731 390.015 208.731 390.015 126.599 441.533 126.599 441.533 209.466 473.107 209.466 473.107 219.022 492.823 219.022 492.823 154.938 506.202 154.938 506.202 219.022 515.357 219.022 515.357 151.4 530.144 151.4 530.144 216.082 548.452 216.082 548.452 107.299 581.548 107.299 581.548 178.596 600.561 178.596 600.561 72.019 647.035 72.019 647.035 287.378"/><rect class="cls-2" x="85.112" y="196.236" width="5.633" height="7.35"/><rect class="cls-2" x="94.266" y="196.236" width="5.633" height="7.35"/><rect class="cls-2" x="103.42" y="196.236" width="5.633" height="7.35"/><rect class="cls-2" x="112.574" y="196.236" width="5.633" height="7.35"/><rect class="cls-2" x="121.728" y="196.236" width="5.633" height="7.35"/><rect class="cls-2" x="130.882" y="196.236" width="5.633" height="7.35"/><rect class="cls-2" x="173.836" y="141.845" width="5.633" height="7.35"/><rect class="cls-2" x="182.991" y="141.845" width="5.633" height="7.35"/><rect class="cls-2" x="192.145" y="141.845" width="5.633" height="7.35"/><rect class="cls-2" x="201.299" y="141.845" width="5.633" height="7.35"/><rect class="cls-2" x="173.836" y="128.615" width="5.633" height="7.35"/><rect class="cls-2" x="182.991" y="128.615" width="5.633" height="7.35"/><rect class="cls-2" x="192.145" y="128.615" width="5.633" height="7.35"/><rect class="cls-2" x="201.299" y="128.615" width="5.633" height="7.35"/><rect class="cls-2" x="173.836" y="115.385" width="5.633" height="7.35"/><rect class="cls-2" x="182.991" y="115.385" width="5.633" height="7.35"/><rect class="cls-2" x="192.145" y="115.385" width="5.633" height="7.35"/><rect class="cls-2" x="201.299" y="115.385" width="5.633" height="7.35"/><rect class="cls-2" x="173.836" y="102.154" width="5.633" height="7.35"/><rect class="cls-2" x="182.991" y="102.154" width="5.633" height="7.35"/><rect class="cls-2" x="192.145" y="102.154" width="5.633" height="7.35"/><rect class="cls-2" x="201.299" y="102.154" width="5.633" height="7.35"/><rect class="cls-2" x="173.836" y="88.924" width="5.633" height="7.35"/><rect class="cls-2" x="182.991" y="88.924" width="5.633" height="7.35"/><rect class="cls-2" x="192.145" y="88.924" width="5.633" height="7.35"/><rect class="cls-2" x="201.299" y="88.924" width="5.633" height="7.35"/><rect class="cls-2" x="210.453" y="141.845" width="5.633" height="7.35"/><rect class="cls-2" x="219.607" y="141.845" width="5.633" height="7.35"/><rect class="cls-2" x="173.836" y="156.545" width="5.633" height="7.35"/><rect class="cls-2" x="182.991" y="156.545" width="5.633" height="7.35"/><rect class="cls-2" x="192.145" y="156.545" width="5.633" height="7.35"/><rect class="cls-2" x="201.299" y="156.545" width="5.633" height="7.35"/><rect class="cls-2" x="210.453" y="156.545" width="5.633" height="7.35"/><rect class="cls-2" x="219.607" y="156.545" width="5.633" height="7.35"/><rect class="cls-2" x="85.112" y="211.672" width="5.633" height="7.35"/><rect class="cls-2" x="94.266" y="211.672" width="5.633" height="7.35"/><rect class="cls-2" x="103.42" y="211.672" width="5.633" height="7.35"/><rect class="cls-2" x="112.574" y="211.672" width="5.633" height="7.35"/><rect class="cls-2" x="121.728" y="211.672" width="5.633" height="7.35"/><rect class="cls-2" x="130.882" y="211.672" width="5.633" height="7.35"/><rect class="cls-2" x="85.112" y="227.107" width="5.633" height="7.35"/><rect class="cls-2" x="94.266" y="227.107" width="5.633" height="7.35"/><rect class="cls-2" x="103.42" y="227.107" width="5.633" height="7.35"/><rect class="cls-2" x="112.574" y="227.107" width="5.633" height="7.35"/><rect class="cls-2" x="121.728" y="227.107" width="5.633" height="7.35"/><rect class="cls-2" x="130.882" y="227.107" width="5.633" height="7.35"/><rect class="cls-2" x="85.112" y="242.542" width="5.633" height="7.35"/><rect class="cls-2" x="94.266" y="242.542" width="5.633" height="7.35"/><rect class="cls-2" x="103.42" y="242.542" width="5.633" height="7.35"/><rect class="cls-2" x="112.574" y="242.542" width="5.633" height="7.35"/><rect class="cls-2" x="121.728" y="242.542" width="5.633" height="7.35"/><rect class="cls-2" x="130.882" y="242.542" width="5.633" height="7.35"/><rect class="cls-2" x="85.112" y="257.977" width="5.633" height="7.35"/><rect class="cls-2" x="94.266" y="257.977" width="5.633" height="7.35"/><rect class="cls-2" x="103.42" y="257.977" width="5.633" height="7.35"/><rect class="cls-2" x="112.574" y="257.977" width="5.633" height="7.35"/><rect class="cls-2" x="121.728" y="257.977" width="5.633" height="7.35"/><rect class="cls-2" x="130.882" y="257.977" width="5.633" height="7.35"/><rect class="cls-2" x="618.165" y="87.454" width="5.633" height="7.35"/><rect class="cls-2" x="627.319" y="87.454" width="5.633" height="7.35"/><rect class="cls-2" x="636.473" y="87.454" width="5.633" height="7.35"/><rect class="cls-2" x="618.165" y="105.829" width="5.633" height="7.35"/><rect class="cls-2" x="627.319" y="105.829" width="5.633" height="7.35"/><rect class="cls-2" x="636.473" y="105.829" width="5.633" height="7.35"/><rect class="cls-2" x="618.165" y="124.205" width="5.633" height="7.35"/><rect class="cls-2" x="627.319" y="124.205" width="5.633" height="7.35"/><rect class="cls-2" x="636.473" y="124.205" width="5.633" height="7.35"/><rect class="cls-2" x="618.165" y="142.58" width="5.633" height="7.35"/><rect class="cls-2" x="627.319" y="142.58" width="5.633" height="7.35"/><rect class="cls-2" x="636.473" y="142.58" width="5.633" height="7.35"/><rect class="cls-2" x="618.165" y="160.955" width="5.633" height="7.35"/><rect class="cls-2" x="627.319" y="160.955" width="5.633" height="7.35"/><rect class="cls-2" x="636.473" y="160.955" width="5.633" height="7.35"/><rect class="cls-2" x="618.165" y="179.331" width="5.633" height="7.35"/><rect class="cls-2" x="627.319" y="179.331" width="5.633" height="7.35"/><rect class="cls-2" x="636.473" y="179.331" width="5.633" height="7.35"/><rect class="cls-2" x="618.165" y="197.706" width="5.633" height="7.35"/><rect class="cls-2" x="627.319" y="197.706" width="5.633" height="7.35"/><rect class="cls-2" x="636.473" y="197.706" width="5.633" height="7.35"/><rect class="cls-2" x="618.165" y="216.082" width="5.633" height="7.35"/><rect class="cls-2" x="627.319" y="216.082" width="5.633" height="7.35"/><rect class="cls-2" x="636.473" y="216.082" width="5.633" height="7.35"/><rect class="cls-2" x="618.165" y="234.457" width="5.633" height="7.35"/><rect class="cls-2" x="627.319" y="234.457" width="5.633" height="7.35"/><rect class="cls-2" x="558.232" y="124.205" width="5.633" height="7.35"/><rect class="cls-2" x="567.386" y="124.205" width="5.633" height="7.35"/><rect class="cls-2" x="558.232" y="142.58" width="5.633" height="7.35"/><rect class="cls-2" x="567.386" y="142.58" width="5.633" height="7.35"/><rect class="cls-2" x="558.232" y="160.955" width="5.633" height="7.35"/><rect class="cls-2" x="567.386" y="160.955" width="5.633" height="7.35"/><rect class="cls-2" x="558.232" y="179.331" width="5.633" height="7.35"/><rect class="cls-2" x="567.386" y="179.331" width="5.633" height="7.35"/><rect class="cls-2" x="558.232" y="197.706" width="5.633" height="7.35"/><rect class="cls-2" x="567.386" y="197.706" width="5.633" height="7.35"/><rect class="cls-2" x="558.232" y="216.082" width="5.633" height="7.35"/><rect class="cls-2" x="567.386" y="216.082" width="5.633" height="7.35"/><rect class="cls-2" x="558.232" y="234.457" width="5.633" height="7.35"/><rect class="cls-2" x="567.386" y="234.457" width="5.633" height="7.35"/><rect class="cls-2" x="396.896" y="142.58" width="5.633" height="7.35"/><rect class="cls-2" x="406.05" y="142.58" width="5.633" height="7.35"/><rect class="cls-2" x="396.896" y="160.955" width="5.633" height="7.35"/><rect class="cls-2" x="406.05" y="160.955" width="5.633" height="7.35"/><rect class="cls-2" x="396.896" y="179.331" width="5.633" height="7.35"/><rect class="cls-2" x="406.05" y="179.331" width="5.633" height="7.35"/><rect class="cls-2" x="396.896" y="197.706" width="5.633" height="7.35"/><rect class="cls-2" x="406.05" y="197.706" width="5.633" height="7.35"/><rect class="cls-2" x="396.896" y="216.082" width="5.633" height="7.35"/><rect class="cls-2" x="406.05" y="216.082" width="5.633" height="7.35"/><rect class="cls-2" x="396.896" y="234.457" width="5.633" height="7.35"/><rect class="cls-2" x="406.05" y="234.457" width="5.633" height="7.35"/><rect class="cls-2" x="417.625" y="142.58" width="5.633" height="7.35"/><rect class="cls-2" x="426.779" y="142.58" width="5.633" height="7.35"/><rect class="cls-2" x="417.625" y="160.955" width="5.633" height="7.35"/><rect class="cls-2" x="426.779" y="160.955" width="5.633" height="7.35"/><rect class="cls-2" x="417.625" y="179.331" width="5.633" height="7.35"/><rect class="cls-2" x="426.779" y="179.331" width="5.633" height="7.35"/><rect class="cls-2" x="417.625" y="197.706" width="5.633" height="7.35"/><rect class="cls-2" x="426.779" y="197.706" width="5.633" height="7.35"/><rect class="cls-2" x="417.625" y="216.082" width="5.633" height="7.35"/><rect class="cls-2" x="426.779" y="216.082" width="5.633" height="7.35"/><rect class="cls-2" x="417.625" y="234.457" width="5.633" height="7.35"/><rect class="cls-2" x="426.779" y="234.457" width="5.633" height="7.35"/><rect class="cls-2" x="273.731" y="87.454" width="5.633" height="7.35"/><rect class="cls-2" x="282.885" y="87.454" width="5.633" height="7.35"/><rect class="cls-2" x="273.731" y="105.829" width="5.633" height="7.35"/><rect class="cls-2" x="282.885" y="105.829" width="5.633" height="7.35"/><rect class="cls-2" x="273.731" y="124.205" width="5.633" height="7.35"/><rect class="cls-2" x="282.885" y="124.205" width="5.633" height="7.35"/><rect class="cls-2" x="273.731" y="142.58" width="5.633" height="7.35"/><rect class="cls-2" x="282.885" y="142.58" width="5.633" height="7.35"/><rect class="cls-2" x="273.731" y="160.955" width="5.633" height="7.35"/><rect class="cls-2" x="282.885" y="160.955" width="5.633" height="7.35"/><rect class="cls-2" x="273.731" y="179.331" width="5.633" height="7.35"/><rect class="cls-2" x="282.885" y="179.331" width="5.633" height="7.35"/><rect class="cls-2" x="273.731" y="197.706" width="5.633" height="7.35"/><rect class="cls-2" x="282.885" y="197.706" width="5.633" height="7.35"/><rect class="cls-2" x="273.731" y="216.082" width="5.633" height="7.35"/><rect class="cls-2" x="282.885" y="216.082" width="5.633" height="7.35"/><rect class="cls-2" x="273.731" y="234.457" width="5.633" height="7.35"/><rect class="cls-2" x="282.885" y="234.457" width="5.633" height="7.35"/><rect class="cls-2" x="636.473" y="234.457" width="5.633" height="7.35"/><path class="cls-3" d="M647.271,383.191c0,28.053-15.731,30.171-35.136,30.171S577,411.244,577,383.191,592.73,296.5,612.135,296.5,647.271,355.138,647.271,383.191Z" transform="translate(-24.864 -29.568)"/><path class="cls-4" d="M647.076,382.121c0,28.053-15.731,30.171-35.136,30.171S576.8,410.174,576.8,382.121s15.731-86.694,35.136-86.694S647.076,354.068,647.076,382.121Z" transform="translate(-24.864 -29.568)"/><polygon class="cls-5" points="599.151 366.351 593.34 366.751 608.477 356.546 597.666 362.011 599.151 357.742 594.209 363.759 588.411 366.689 587.951 346.545 591.021 339.09 587.876 343.282 587.61 331.602 597.238 318.763 587.543 328.689 586.956 302.981 586.437 319.435 580.26 312.546 586.337 322.596 585.515 348.66 580.137 345.144 575.238 336.459 577.202 343.225 567.586 336.937 585.4 352.302 582.702 437.851 590.038 437.851 588.488 370.023 590.182 368.88 599.151 366.351"/><path class="cls-3" d="M733.818,331.979c0,45.109-25.295,48.515-56.5,48.515s-56.5-3.406-56.5-48.515,25.295-139.4,56.5-139.4S733.818,286.87,733.818,331.979Z" transform="translate(-24.864 -29.568)"/><path class="cls-6" d="M733.818,330.961c0,45.11-25.295,48.516-56.5,48.516s-56.5-3.406-56.5-48.516,25.295-139.4,56.5-139.4S733.818,285.852,733.818,330.961Z" transform="translate(-24.864 -29.568)"/><polygon class="cls-5" points="671.559 322.878 662.214 323.522 686.555 307.112 669.171 315.9 671.559 309.035 663.611 318.71 654.289 323.423 653.549 291.03 658.485 279.042 653.429 285.783 653 267.001 668.482 246.357 652.893 262.318 651.948 220.978 651.114 247.438 641.181 236.359 650.953 252.521 649.632 294.432 640.984 288.777 633.106 274.812 636.265 285.692 620.801 275.581 649.447 300.288 645.109 437.851 656.904 437.851 654.411 328.782 657.135 326.946 671.559 322.878"/><path class="cls-3" d="M112.253,383.191c0,28.053,15.73,30.171,35.136,30.171s35.135-2.118,35.135-30.171S166.794,296.5,147.389,296.5,112.253,355.138,112.253,383.191Z" transform="translate(-24.864 -29.568)"/><path class="cls-4" d="M111.492,382.218c0,28.053,15.731,30.171,35.136,30.171s35.136-2.118,35.136-30.171-15.731-86.694-35.136-86.694S111.492,354.165,111.492,382.218Z" transform="translate(-24.864 -29.568)"/><polygon class="cls-5" points="110.644 366.351 116.456 366.751 101.318 356.546 112.129 362.011 110.644 357.742 115.587 363.759 121.384 366.689 121.844 346.545 118.775 339.09 121.919 343.282 122.186 331.602 112.557 318.763 122.253 328.689 122.84 302.981 123.359 319.435 129.536 312.546 123.459 322.596 124.281 348.66 129.658 345.144 134.557 336.459 132.593 343.225 142.21 336.937 124.395 352.302 127.093 437.851 119.758 437.851 121.308 370.023 119.614 368.88 110.644 366.351"/><path class="cls-3" d="M26.083,333.432c0,44.958,25.211,48.353,56.31,48.353s56.31-3.4,56.31-48.353-25.211-138.94-56.31-138.94S26.083,288.473,26.083,333.432Z" transform="translate(-24.864 -29.568)"/><path class="cls-6" d="M24.864,332.544c0,44.959,25.211,48.354,56.31,48.354s56.31-3.4,56.31-48.354-25.21-138.939-56.31-138.939S24.864,287.586,24.864,332.544Z" transform="translate(-24.864 -29.568)"/><polygon class="cls-5" points="38.489 324.262 47.803 324.904 23.543 308.549 40.869 317.307 38.489 310.465 46.411 320.108 55.702 324.805 56.439 292.52 51.52 280.572 56.559 287.291 56.987 268.572 41.555 247.997 57.093 263.904 58.035 222.703 58.866 249.074 68.766 238.032 59.026 254.14 60.343 295.911 68.962 290.275 76.814 276.357 73.665 287.2 89.077 277.123 60.527 301.747 64.851 438.851 53.095 438.851 55.58 330.147 52.865 328.316 38.489 324.262"/><rect class="cls-7" x="335.206" y="179.675" width="38.791" height="15.611" rx="3.994"/><rect class="cls-7" x="351.29" y="172.106" width="3.784" height="11.827"/><path class="cls-7" d="M512.8,286.474l-13.567-10.523-18.9-69.863-31.463-3.879,13.611,50.557H303.37l13.611-50.557-31.463,3.879-19.18,70.883-14.327,9.5Zm-60.055-80.386,23.7,1.724,15.157,62.224-22.265-17.27h-1.2ZM289.4,207.812l23.7-1.724-16.6,50.3.567.194-23.324,15.472Z" transform="translate(-24.864 -29.568)"/><path class="cls-8" d="M351.115,289.665l-2.336-33.275a15.088,15.088,0,0,0-15.051-14.032H303.153A15.088,15.088,0,0,0,288.1,256.39l-2.336,33.275Z" transform="translate(-24.864 -29.568)"/><path class="cls-8" d="M471.681,289.665l-2.335-33.275A15.088,15.088,0,0,0,454.3,242.358H423.72a15.087,15.087,0,0,0-15.051,14.032l-2.336,33.275Z" transform="translate(-24.864 -29.568)"/><path class="cls-9" d="M310.711,217.782s-5.864-4.189-9.493-2.234-11.169,23.176-12.286,27.922,5.863,8.656,10.61,10.052,14.241-1.675,16.474-3.909S310.711,217.782,310.711,217.782Z" transform="translate(-24.864 -29.568)"/><path class="cls-10" d="M350.322,290.552c-.358-1.126-.57-1.825-.57-1.825s-4.067-21.788-5.084-23.531-13.654-7.408-13.654-7.408l-21.933-1.162s-16.414,7.989-16.559,9.006c-.077.539-3.218,13.178-6.148,24.92Z" transform="translate(-24.864 -29.568)"/><path class="cls-11" d="M298.855,274.243a53.617,53.617,0,0,1,2.69,9.723" transform="translate(-24.864 -29.568)"/><path class="cls-11" d="M341.88,275.756c-.7,2.4-2.466,5.576-1.939,8.138" transform="translate(-24.864 -29.568)"/><path class="cls-9" d="M321.286,210.307s-13.054,3.626-16.681,10.637-3.868,8.582-1.813,11.966,7.132,9.428,11.846,11.846,19.7-1.088,19.7-1.088,4.593-2.055,6.043-5.681,4.714-8.7,2.539-14.142-11.846-12.934-14.868-13.78A14.5,14.5,0,0,0,321.286,210.307Z" transform="translate(-24.864 -29.568)"/><path class="cls-12" d="M330.788,219.478s-6.511,4.007-9.85,6.344a32.707,32.707,0,0,1-7.345,3.673,4.341,4.341,0,0,0-2.338,4.841c.668,3.506,1.933,15.617,1.933,15.617l-2.267,4.917,9.683,10.684,7.679-10.016.835-5.175s7.011-4.341,7.178-5.343,2.171-15.692,2-17.2S330.788,219.478,330.788,219.478Z" transform="translate(-24.864 -29.568)"/><path class="cls-1" d="M331.923,229.767s-.363,3.264-.363,3.748,2.9,3.021,1.814,3.988a10.129,10.129,0,0,1-3.264,1.572" transform="translate(-24.864 -29.568)"/><path class="cls-1" d="M330.473,242.1s-1.209,1.329-3.868-1.451" transform="translate(-24.864 -29.568)"/><path class="cls-7" d="M329.118,250.363a11.846,11.846,0,0,1-3.843-1.014c-1.088-.725-4.231-3.143-4.231-3.143l6.165,10.637,1.074-1.305Z" transform="translate(-24.864 -29.568)"/><path class="cls-12" d="M314.88,232.668s-2.3-6.889-4.956-3.021,1.571,9.307,3.626,9.186" transform="translate(-24.864 -29.568)"/><ellipse class="cls-5" cx="301.076" cy="202.737" rx="1.027" ry="1.451"/><ellipse class="cls-5" cx="310.141" cy="202.737" rx="1.027" ry="1.45"/><path class="cls-1" d="M323.22,229.163a4.205,4.205,0,0,1,5.077-.483" transform="translate(-24.864 -29.568)"/><path class="cls-1" d="M333.011,228.438s3.264-1.33,3.989,1.209" transform="translate(-24.864 -29.568)"/><polygon class="cls-12" points="286.027 221.594 294.488 232.352 288.686 238.637 282.159 226.912 286.027 221.594"/><polyline class="cls-7" points="258.824 180.121 298.206 259.677 287.614 259.677 255.883 182.551"/><polygon class="cls-12" points="294.488 232.352 295.74 235.986 292.796 234.527 294.488 232.352"/><polygon class="cls-12" points="297.51 230.539 301.62 238.637 307.905 228 303.675 224.616 297.51 230.539"/><polygon class="cls-12" points="297.51 230.539 295.74 235.986 298.719 233.077 297.51 230.539"/><path class="cls-13" d="M492.521,296.864c.69-1.529,4.183-9.509,2.928-11.619-7.116-11.967-9.206-4.038-11.752-10.027-4.275-10.059-7.891-17.068-9.428-18.12-2.97-2.032-22.512-5.784-22.512-5.784l-23.92-.625s-20.636,8.442-22.043,10.318a57.812,57.812,0,0,0-8.129,13.565c-.315.758-7.446,6.455-7.763,7.223-3.366,8.167-.24,13.833.554,15.069Z" transform="translate(-24.864 -29.568)"/><path class="cls-1" d="M413.092,269.5c.236,8.251.236,16.132.581,24.269" transform="translate(-24.864 -29.568)"/><line class="cls-1" x1="388.11" y1="234.975" x2="388.169" y2="237.448"/><path class="cls-1" d="M467.99,268.7q-.716,9.517-1.43,19.033l-.456,6.069" transform="translate(-24.864 -29.568)"/><line class="cls-1" x1="443.473" y1="234.511" x2="443.347" y2="236.191"/><path class="cls-14" d="M434.342,277.733c.24,4.4-.237,13.3-.611,19.131h15.977c-.765-6.942-2-18.169-2.255-20.63-.374-3.621-5.244-13.985-5.244-13.985l3.121-4.121-5.619-5.869-3.621,5.619,2.872,4.745S433.967,270.865,434.342,277.733Z" transform="translate(-24.864 -29.568)"/><polygon class="cls-13" points="406.106 211.952 405.107 219.444 415.721 225.313 425.211 219.569 424.837 214.074 406.106 211.952"/><polygon class="cls-7" points="405.107 219.444 408.673 221.416 414.709 218.891 407.982 212.164 406.106 211.952 405.107 219.444"/><path class="cls-13" d="M430.226,211.887s-3.53,2.522-3.782,6.178,1.639,20.549,3.656,24.331,4.413,6.808,9.329,7.691,10.716-4.035,11.347-6.3,3.026-13.994,3.026-18.406.5-9.455-3.53-13.111-10.59-4.413-13.742-3.782S430.226,211.887,430.226,211.887Z" transform="translate(-24.864 -29.568)"/><path class="cls-7" d="M450.272,212.266c-4.035-3.657-10.59-4.413-13.742-3.782s-6.3,3.4-6.3,3.4-3.53,2.522-3.782,6.178a83.691,83.691,0,0,0,.925,11.72c.257.044.588-.077.588-1,0-1.513-.882-2.4.252-3.656a36.338,36.338,0,0,0,3.908-4.665,7.82,7.82,0,0,0,.757-4.16,13.538,13.538,0,0,0,6.808,2.395c4.538.5,9.455.5,10.211.631s-.252.882.883,2.4,1.639,2.269,1.765,3.026c.109.652.685,4.3.843,5.295a38.124,38.124,0,0,0,.418-4.665C453.8,220.965,454.306,215.922,450.272,212.266Z" transform="translate(-24.864 -29.568)"/><path class="cls-1" d="M437.917,235.589s2.143,1.386,3.53,1.134a8.055,8.055,0,0,0,2.773-1.26" transform="translate(-24.864 -29.568)"/><path class="cls-1" d="M444.346,226.133a4.768,4.768,0,0,1,5.8.253" transform="translate(-24.864 -29.568)"/><path class="cls-1" d="M438.3,226.386s-3.4-2.27-5.8.5" transform="translate(-24.864 -29.568)"/><path class="cls-5" d="M436.4,228.781c0,.627-.311,1.135-.694,1.135s-.693-.508-.693-1.135.31-1.135.693-1.135S436.4,228.154,436.4,228.781Z" transform="translate(-24.864 -29.568)"/><path class="cls-5" d="M446.931,228.781c0,.627-.311,1.135-.694,1.135s-.693-.508-.693-1.135.31-1.135.693-1.135S446.931,228.154,446.931,228.781Z" transform="translate(-24.864 -29.568)"/><path class="cls-1" d="M435.647,239.749a13.083,13.083,0,0,0,9.834-.126" transform="translate(-24.864 -29.568)"/><path class="cls-13" d="M427.2,227.52s-2.018-1.639-2.774,1.261,3.908,6.682,3.908,6.682Z" transform="translate(-24.864 -29.568)"/><path class="cls-13" d="M453.675,228.024s1.135-1.891,2.144.5-3.53,7.69-3.53,7.69Z" transform="translate(-24.864 -29.568)"/><path class="cls-7" d="M441.14,237.823s-6-.847-7.258,1.17c-1.09,1.744-.482,6.595.517,8.936a11.3,11.3,0,0,0,5.03,2.158c2.444.438,5.106-.556,7.242-1.946.5-.707,1.213-2.5.953-6.879C447.413,237.718,445.882,237.374,441.14,237.823Zm4.511,8.187a8.046,8.046,0,0,1-4.775,1.416c-1.019-.032-4.282-.091-5.414-1.239s-2.037-5.478-.9-6.892,6.517-.819,6.517-.819c4.258-.315,5.633-.074,5.822,2.41C447.244,245.452,445.651,246.01,445.651,246.01Z" transform="translate(-24.864 -29.568)"/><path class="cls-7" d="M442.549,245.367c0,.511-.729,2.059-1.629,2.059s-1.63-1.548-1.63-2.059.73-.925,1.63-.925S442.549,244.856,442.549,245.367Z" transform="translate(-24.864 -29.568)"/><polygon class="cls-13" points="415.721 225.313 406.606 233.804 401.736 220.942 404.857 218.445 415.721 225.313"/><polygon class="cls-13" points="415.721 225.313 423.089 234.928 427.959 222.191 425.211 219.569 415.721 225.313"/><polyline class="cls-7" points="455.4 180.121 397.157 259.677 407.75 259.677 458.341 182.551"/><path class="cls-13" d="M386.7,296.864h14.711c1.414-1.645,2.773-3.512,3.135-3.965a8.539,8.539,0,0,0,1.251-7.5,11.63,11.63,0,0,0-4.69-6.1l-3.908.782s-3.283-1.095-5.785,0-5.784,4.846-7.035,9.224A7.052,7.052,0,0,0,386.7,296.864Z" transform="translate(-24.864 -29.568)"/><path class="cls-1" d="M396.047,280.825c-2.735,3.751-4.661,8.655-1.768,12.865" transform="translate(-24.864 -29.568)"/><path class="cls-13" d="M418.364,275.434s2.588-.647,3.45-.108a9.17,9.17,0,0,1,2.264,3.342c.431.971-.215,1.833-1.617,2.049s-3.234-1.617-3.234-1.617Z" transform="translate(-24.864 -29.568)"/><polygon class="cls-7" points="446.983 251.712 444.894 249.027 423.264 262.602 407.75 262.602 386.269 250.369 384.479 252.309 395.043 267.296 434.862 267.296 446.983 251.712"/><path class="cls-7" d="M408.276,296.864a32.258,32.258,0,0,1,64.413,0h5.147a37.4,37.4,0,0,0-74.707,0Z" transform="translate(-24.864 -29.568)"/><path class="cls-13" d="M404.241,272.847s-6.576,9.487-6.792,12.829,1.294,6.792,4.528,7.331,3.773-1.509,3.773-1.509,7.008,1.509,7.332,1.509a1.538,1.538,0,0,0,1.293-1.078,10.213,10.213,0,0,1,.755-1.725,5.643,5.643,0,0,0,1.617-1.833,18.737,18.737,0,0,0,.863-1.725,14.216,14.216,0,0,0,1.4-2.479,10.434,10.434,0,0,0,.216-2.156,4.92,4.92,0,0,0,.97-2.911c-.108-1.51-1.617-4.205-4.744-5.93s-7.546-2.48-9.056-2.264A3.145,3.145,0,0,0,404.241,272.847Z" transform="translate(-24.864 -29.568)"/><line class="cls-1" x1="385.502" y1="247.354" x2="394.363" y2="252.442"/><line class="cls-1" x1="383.474" y1="246.189" x2="384.61" y2="246.842"/><line class="cls-1" x1="380.886" y1="250.933" x2="392.745" y2="257.078"/><line class="cls-1" x1="382.5" y1="257.193" x2="390.266" y2="260.636"/><line class="cls-1" x1="379.808" y1="256" x2="381.349" y2="256.683"/><path class="cls-13" d="M480.218,296.864h14.711a7.049,7.049,0,0,0,2.321-7.56c-1.251-4.378-4.534-8.13-7.035-9.224s-5.784,0-5.784,0l-3.909-.782a11.63,11.63,0,0,0-4.69,6.1,8.539,8.539,0,0,0,1.251,7.5C477.445,293.352,478.8,295.219,480.218,296.864Z" transform="translate(-24.864 -29.568)"/><path class="cls-1" d="M488.28,291.913a8.262,8.262,0,0,1-.932,1.777" transform="translate(-24.864 -29.568)"/><path class="cls-1" d="M485.579,280.825c2.006,2.751,3.577,6.121,3.131,9.384" transform="translate(-24.864 -29.568)"/><path class="cls-13" d="M463.262,275.434s-2.587-.647-3.45-.108a9.183,9.183,0,0,0-2.264,3.342c-.431.971.216,1.833,1.617,2.049S462.4,279.1,462.4,279.1Z" transform="translate(-24.864 -29.568)"/><path class="cls-13" d="M477.385,272.847s6.577,9.487,6.792,12.829-1.294,6.792-4.528,7.331-3.773-1.509-3.773-1.509-7.008,1.509-7.331,1.509a1.539,1.539,0,0,1-1.294-1.078,10.213,10.213,0,0,0-.755-1.725,5.643,5.643,0,0,1-1.617-1.833,18.484,18.484,0,0,1-.862-1.725,14.2,14.2,0,0,1-1.4-2.479,10.434,10.434,0,0,1-.216-2.156,4.92,4.92,0,0,1-.97-2.911c.108-1.51,1.617-4.205,4.744-5.93s7.547-2.48,9.056-2.264A3.145,3.145,0,0,1,477.385,272.847Z" transform="translate(-24.864 -29.568)"/><line class="cls-1" x1="446.396" y1="247.354" x2="437.535" y2="252.442"/><line class="cls-1" x1="448.424" y1="246.189" x2="447.288" y2="246.842"/><line class="cls-1" x1="451.012" y1="250.933" x2="439.153" y2="257.078"/><line class="cls-1" x1="449.398" y1="257.193" x2="441.632" y2="260.636"/><line class="cls-1" x1="452.09" y1="256" x2="450.549" y2="256.683"/><path class="cls-7" d="M507.54,362.559v63.164H260.624V362.559H214.208v92.309a12.965,12.965,0,0,0,12.965,12.965h20.486a12.965,12.965,0,0,0,12.965-12.965v-4.262h22.49l10.528-6.7H473.565l13.4,7.657H507.54v3.3a12.966,12.966,0,0,0,12.966,12.965h20.485a12.966,12.966,0,0,0,12.966-12.965V362.559Z" transform="translate(-24.864 -29.568)"/><path class="cls-14" d="M544.386,317.1c-1.72-3.44-14.263-16.543-16.785-19.162a4.411,4.411,0,0,1-.737-1.021c-3.071-5.857-29.112-72.966-33.679-81.484-8.379-15.626-15.1-13.273-24.051-14.408-.264-.033-.524.044-.79.03L400.4,197.619a334.538,334.538,0,0,0-33.591-.01q-27.585,1.38-55.169,2.761c-15.347.783-30.141-.211-38.573,15.062-4.671,8.459-30.608,75.6-33.678,81.479a4.432,4.432,0,0,1-.742,1.03c-2.531,2.627-15.063,15.719-16.782,19.158-1.914,3.829-9.57,18.184-9.57,21.055,0,2.477,1.78,43.412,9.641,75.5A27.408,27.408,0,0,0,241,433.558a6.7,6.7,0,0,0,1.442.3h59.608a4.509,4.509,0,0,0,3.9-2.249l14.1-24.358A4.5,4.5,0,0,1,321.125,406a33.893,33.893,0,0,1,20.847-7.072h82.306A33.893,33.893,0,0,1,445.125,406a4.5,4.5,0,0,1,1.073,1.253l14.1,24.358a4.509,4.509,0,0,0,3.9,2.249H523.81a6.681,6.681,0,0,0,1.441-.3,27.4,27.4,0,0,0,19.063-19.9c7.862-32.087,9.643-73.022,9.643-75.5C553.957,335.283,546.3,320.928,544.386,317.1ZM252.011,286.474c11.963-23.447,34.453-76.306,34.453-76.306,109.581-11.006,193.8-.478,193.8-.478L512.8,286.474C438.633,279.3,252.011,286.474,252.011,286.474Z" transform="translate(-24.864 -29.568)"/><path class="cls-8" d="M304.648,433.858l-3.35,7.656H464l-2.393-7.656-15.791-27.275s-6.221-7.178-21.533-7.657-82.306,0-82.306,0a31.861,31.861,0,0,0-21.533,7.657Z" transform="translate(-24.864 -29.568)"/><path class="cls-7" d="M318.525,342.94s12.92,22.968,16.748,26.8,8.135,3.828,13.4,4.306,77.52,0,77.52,0,5.742-.957,8.613-5.263,12.442-25.84,12.442-25.84Z" transform="translate(-24.864 -29.568)"/><path class="cls-8" d="M331.344,346.058s10.347,18.394,13.413,21.46,6.514,3.066,10.729,3.449,62.08,0,62.08,0,4.6-.766,6.9-4.215,9.963-20.694,9.963-20.694Z" transform="translate(-24.864 -29.568)"/><path class="cls-13" d="M452.032,438.644" transform="translate(-24.864 -29.568)"/><path class="cls-7" d="M436.868,425.723l-2.863-7.907a12.417,12.417,0,0,0-11.92-8.186l-77.72.781a12.415,12.415,0,0,0-11.717,9.09l-1.936,6.222Z" transform="translate(-24.864 -29.568)"/><polygon class="cls-7" points="304.657 399.983 302.274 407.639 416.162 407.639 413.39 399.983 304.657 399.983"/><path class="cls-7" d="M527.159,297.48s2.393-18.662,6.7-18.662,23.447,5.264,23.926,9.092-3.828,8.135-7.657,9.092-11.963,1.914-11.963,1.914l-1.914,7.178Z" transform="translate(-24.864 -29.568)"/><path class="cls-7" d="M239.091,297.48s-2.393-18.662-6.7-18.662-23.447,5.264-23.926,9.092,3.829,8.135,7.657,9.092,11.963,1.914,11.963,1.914L230,306.094Z" transform="translate(-24.864 -29.568)"/><path class="cls-13" d="M294.6,340.547s8.613,9.092,11.484,25.84c0,0-40.674-1.914-56.465-8.135s-17.7-6.7-18.184-9.57.957-23.448,7.178-26.8,12.92-2.393,19.141,2.392,13.877,11.963,18.184,13.4S294.6,340.547,294.6,340.547Z" transform="translate(-24.864 -29.568)"/><path class="cls-13" d="M266.727,341.937a11.216,11.216,0,1,1-11.215-11.216A11.215,11.215,0,0,1,266.727,341.937Z" transform="translate(-24.864 -29.568)"/><path class="cls-13" d="M286.755,355.956a5.208,5.208,0,1,1-5.208-5.207A5.208,5.208,0,0,1,286.755,355.956Z" transform="translate(-24.864 -29.568)"/><path class="cls-13" d="M473,340.547s-8.613,9.092-11.485,25.84c0,0,40.675-1.914,56.466-8.135s17.705-6.7,18.183-9.57-.956-23.448-7.177-26.8-12.92-2.393-19.141,2.392-13.877,11.963-18.184,13.4S473,340.547,473,340.547Z" transform="translate(-24.864 -29.568)"/><path class="cls-13" d="M503.452,341.937a11.216,11.216,0,1,0,11.215-11.216A11.215,11.215,0,0,0,503.452,341.937Z" transform="translate(-24.864 -29.568)"/><path class="cls-13" d="M483.425,355.956a5.207,5.207,0,1,0,5.207-5.207A5.207,5.207,0,0,0,483.425,355.956Z" transform="translate(-24.864 -29.568)"/><path class="cls-7" d="M524.288,383.135s-44.5,8.613-46.416,10.049-5.742,9.57-5.742,9.57l9.092-2.392s21.054.957,28.232-2.393S524.288,383.135,524.288,383.135Z" transform="translate(-24.864 -29.568)"/><path class="cls-7" d="M245.311,383.135s44.5,8.613,46.417,10.049,5.742,9.57,5.742,9.57l-9.092-2.392s-21.055.957-28.233-2.393S245.311,383.135,245.311,383.135Z" transform="translate(-24.864 -29.568)"/><polyline class="cls-1" points="443.649 318.343 431.765 314.382 422.383 314.382"/><polyline class="cls-1" points="275.01 317.777 282.932 313.25 293.661 313.371"/><path class="cls-1" d="M502.2,294.393q1.809-1.038,3.666-1.94" transform="translate(-24.864 -29.568)"/><path class="cls-1" d="M449.52,362.325c7.485-16.458,24.6-49.188,48.53-65.343" transform="translate(-24.864 -29.568)"/><path class="cls-1" d="M445.311,372.246s.59-1.568,1.732-4.277" transform="translate(-24.864 -29.568)"/><path class="cls-1" d="M268.128,296.974q-2.978-1.807-6.17-3.389" transform="translate(-24.864 -29.568)"/><path class="cls-1" d="M316.058,362.687c-4.9-14.644-17.671-44.948-43.714-62.977" transform="translate(-24.864 -29.568)"/><path class="cls-1" d="M318.549,371.114s-.354-1.522-1.14-4.16" transform="translate(-24.864 -29.568)"/><path class="cls-13" d="M248.376,320.182s-5.093-12.45-5.093-19.806" transform="translate(-24.864 -29.568)"/><path class="cls-13" d="M520.577,319.617a98.949,98.949,0,0,0,2.829-15.846" transform="translate(-24.864 -29.568)"/><path class="cls-1" d="M538.12,372.812l-3.4,44.14-62.815,2.83s-10.752-13.016-11.318-18.675,7.356-14.148,9.62-14.714,41.877-8.488,41.877-8.488" transform="translate(-24.864 -29.568)"/><path class="cls-1" d="M230.805,372.812l3.395,44.14,62.815,2.83s10.753-13.016,11.318-18.675-7.356-14.148-9.62-14.714-41.877-8.488-41.877-8.488" transform="translate(-24.864 -29.568)"/><path class="cls-1" d="M335.818,353.6,382,357.3a37.45,37.45,0,0,0,5.9.007L430.451,354" transform="translate(-24.864 -29.568)"/><path class="cls-1" d="M338.863,358.438,382,361.889a37.45,37.45,0,0,0,5.9.006l41.067-3.189" transform="translate(-24.864 -29.568)"/><path class="cls-1" d="M341.949,363.275l40.046,3.2a37.571,37.571,0,0,0,5.9.007l38.991-3.029" transform="translate(-24.864 -29.568)"/><path class="cls-1" d="M252.011,286.474s186.622-7.178,260.793,0L480.265,209.69s-84.22-10.528-193.8.478C286.464,210.168,263.974,263.027,252.011,286.474Z" transform="translate(-24.864 -29.568)"/></g></svg>